<svg xmlns="http://www.w3.org/2000/svg" viewBox="0 0 78 104"><g id="Layer_2" data-name="Layer 2"><g id="Design"><polyline points="26 104 39 91 26 91"/><polyline points="52.16 104 39 91 52.16 91"/><path d="M78,39A39,39,0,1,0,13.33,68.34V104H26V75.77a39.06,39.06,0,0,0,26.16,0V104H64.84V68.2A38.87,38.87,0,0,0,78,39ZM39,65.26A26.26,26.26,0,1,1,65.26,39,26.3,26.3,0,0,1,39,65.26Z"/><polygon points="39 19.5 34.47 33.45 19.8 33.45 31.67 42.07 27.14 56.02 39 47.4 50.87 56.02 46.33 42.07 58.2 33.45 43.53 33.45 39 19.5"/></g></g></svg>