<svg xmlns="http://www.w3.org/2000/svg" xmlns:xlink="http://www.w3.org/1999/xlink" x="0px" y="0px"
	 viewBox="0 0 980.5 204.2" enable-background="new 0 0 980.5 204.2" xml:space="preserve">
<title>Antenna-logo</title>
<path fill="#CA1424" d="M51.3,2.4h20.9l49.5,136.4h-20.2L87.7,97.9h-54l-14.8,40.8H0L51.3,2.4z M81.7,82.9L61,22.6L39,82.9H81.7z"/>
<path fill="#CA1424" d="M155.1,2.4h21.8l68,110.2V2.4h17.6v136.4h-20.7l-69-110.1v110.1h-17.7V2.4z"/>
<path fill="#FFFFFF" d="M409.4,2.4l-3.4,16.2H360l-25.6,120.1h-18.8l25.5-120.1h-46l3.4-16.2L409.4,2.4z"/>
<path fill="#FFFFFF" d="M435.1,2.4h99.4l-3.6,16.7h-81.4l-8.7,41.4H516l-3.3,15.8h-75.3l-9.8,46.2h82.8l-3.4,16.2H406.1L435.1,2.4z"
	/>
<path fill="#FFFFFF" d="M575.9,2.4h21.8l45.4,110.5L666.7,2.4h17.5l-29,136.4h-20.7L588,28.4l-23.4,110.4H547L575.9,2.4z"/>
<path fill="#CA1424" d="M713.9,2.4h21.8l68,110.2V2.4h17.6v136.4h-20.7l-69-110.1v110.1h-17.7V2.4z"/>
<path fill="#CA1424" d="M905.8,2.4h20.9l49.5,136.4H956l-13.9-40.8h-53.9l-14.8,40.8h-18.9L905.8,2.4z M936.2,82.9l-20.7-60.3
	l-22,60.3H936.2z"/>
<path fill="#CA1424" d="M977.4,17.8c-4.1,4.1-10.7,4.1-14.7,0c0,0,0,0,0,0c-2-2-3.1-4.6-3-7.4c-0.1-2.8,1-5.4,3-7.4
	c4.1-4.1,10.7-4.1,14.8,0c2,1.9,3.1,4.6,3.1,7.4C980.5,13.2,979.4,15.9,977.4,17.8z M963.7,4.1c-1.7,1.7-2.6,4-2.6,6.4
	c0,2.4,0.9,4.7,2.6,6.4c3.5,3.5,9.1,3.5,12.6,0.1c0,0,0,0,0.1-0.1c1.7-1.7,2.7-4,2.6-6.4c0-2.4-0.9-4.7-2.6-6.4
	C972.9,0.6,967.2,0.5,963.7,4.1C963.7,4,963.7,4,963.7,4.1L963.7,4.1z M969.8,4.7c1.1-0.1,2.1,0.1,3.1,0.4c1.2,0.5,1.9,1.7,1.8,2.9
	c0.1,0.9-0.4,1.8-1.1,2.3c-0.5,0.3-1.1,0.5-1.7,0.6c0.8,0.1,1.5,0.5,2,1.1c0.4,0.5,0.6,1.1,0.6,1.8v0.8c0,0.3,0,0.6,0,0.9
	c0,0.2,0,0.4,0.1,0.6l0.1,0.1h-1.9V16v-0.1v-0.4v-0.9c0.1-1-0.3-2-1.2-2.6c-0.7-0.3-1.5-0.4-2.2-0.4h-1.6v4.5h-2V4.7H969.8z
	 M972,6.4c-0.8-0.3-1.6-0.5-2.5-0.4h-1.7v4.1h1.8c0.7,0,1.3-0.1,1.9-0.3c0.8-0.3,1.2-1,1.2-1.8C972.8,7.5,972.5,6.8,972,6.4z"/>
<path fill="#FFFFFF" d="M664.4,175.7c3.9,0,7.1,3.2,7.1,7.1c0,3.9-3.2,7.1-7.1,7.1c0,0,0,0,0,0h-5.1v7.9h-3v-22.2H664.4z
	 M664.4,187.2c1.1,0,2.2-0.4,3-1.2c0.8-0.8,1.2-2,1.2-3.1c0.1-2.3-1.7-4.3-4-4.4c-0.1,0-0.2,0-0.3,0h-5.1v8.8L664.4,187.2z"/>
<path fill="#FFFFFF" d="M682.9,198.3c-4.6,0-8.2-3.8-8.2-8.4c0-4.6,3.8-8.2,8.4-8.2s8.2,3.8,8.2,8.4c0,2.2-0.9,4.2-2.4,5.8
	C687.3,197.5,685.1,198.4,682.9,198.3z M686.9,194c2.2-2.2,2.2-5.8,0.1-8c-1.1-1.1-2.5-1.7-4.1-1.7c-3.1,0-5.6,2.6-5.6,5.7
	c0,3.1,2.6,5.6,5.7,5.6C684.4,195.6,685.8,195,686.9,194z"/>
<path fill="#FFFFFF" d="M714.5,182.1h2.9l-4.9,15.8h-2.8l-3.7-11.7l-3.7,11.7h-2.8l-4.9-15.8h2.9l3.5,12l3.7-12h2.7l3.8,12.1
	L714.5,182.1z"/>
<path fill="#FFFFFF" d="M723.4,191.2c0.5,2.8,2.7,4.5,5.7,4.5c1.8,0.1,3.6-0.8,4.6-2.3l2.3,1.3c-1.5,2.4-4.2,3.7-7,3.6
	c-2.3,0.1-4.5-0.8-6.2-2.3c-3.1-3.4-3.1-8.6,0-12c1.6-1.6,3.8-2.5,6-2.4c2.2-0.1,4.2,0.8,5.7,2.5c1.5,1.6,2.3,3.7,2.2,5.9
	c0,0.4,0,0.8-0.1,1.2L723.4,191.2z M723.4,188.8H734c-0.2-2.6-2.4-4.7-5.1-4.6C726.1,184.1,723.8,186.1,723.4,188.8z"/>
<path fill="#FFFFFF" d="M744.6,184.7c0.8-2,2.8-3.2,5-3v2.9c-1.3-0.1-2.5,0.3-3.5,1.1c-1.1,1-1.6,2.4-1.5,3.8v8.4h-2.8v-15.8h2.8
	V184.7z"/>
<path fill="#FFFFFF" d="M755.2,191.2c0.5,2.8,2.7,4.5,5.7,4.5c1.8,0.1,3.6-0.8,4.6-2.3l2.3,1.3c-1.5,2.4-4.2,3.7-7,3.6
	c-2.3,0.1-4.5-0.8-6.1-2.3c-3.1-3.4-3.1-8.6,0-12c1.6-1.6,3.8-2.5,6-2.4c2.2-0.1,4.2,0.8,5.7,2.5c1.5,1.6,2.3,3.7,2.2,5.9
	c0,0.4,0,0.8-0.1,1.2L755.2,191.2z M755.2,188.8h10.6c-0.2-2.6-2.4-4.7-5.1-4.6C758,184.1,755.6,186.1,755.2,188.8z"/>
<path fill="#FFFFFF" d="M786.8,175.7h2.8v22.2h-2.8v-2.7c-1.3,2.1-3.6,3.2-6,3.1c-2.1,0-4.2-0.8-5.7-2.4c-3.1-3.3-3.1-8.5,0-11.8
	c1.5-1.6,3.5-2.5,5.7-2.4c2.4-0.1,4.7,1.1,6,3.1V175.7z M785.2,194c1.1-1.1,1.6-2.5,1.6-4.1c0-1.5-0.5-2.9-1.6-4
	c-2.2-2.2-5.8-2.2-8,0c-1.1,1.1-1.7,2.5-1.6,4c0,1.5,0.5,3,1.6,4.1C779.4,196.1,782.9,196.1,785.2,194z"/>
<path fill="#FFFFFF" d="M819.9,184.1c3.1,3.3,3.1,8.5,0,11.8c-1.5,1.6-3.5,2.4-5.7,2.4c-2.4,0.1-4.7-1.1-6-3.1v2.7h-2.8v-22.2h2.8
	v9.1c1.3-2.1,3.6-3.3,6-3.1C816.3,181.6,818.4,182.5,819.9,184.1z M817.9,194.1c1.1-1.1,1.6-2.5,1.6-4.1c0-1.5-0.5-2.9-1.6-4
	c-2.2-2.2-5.8-2.2-8,0c-1.1,1.1-1.7,2.5-1.6,4c0,1.5,0.5,3,1.6,4.1C812.1,196.2,815.6,196.2,817.9,194.1z"/>
<path fill="#FFFFFF" d="M837.8,182.1h3l-6.5,16.8c-1.4,3.6-3.9,5.6-7,5.4v-2.6c1.9,0.2,3.4-0.9,4.3-3.2l0.3-0.6L825,182h3l5.4,12.4
	L837.8,182.1z"/>
<path fill="#FFFFFF" d="M867.9,178.5h-9.8v7.2h9.4v2.8h-9.4v9.4h-2.9v-22.2h12.8V178.5z"/>
<path fill="#FFFFFF" d="M880.5,198.3c-4.6,0-8.3-3.8-8.2-8.4c0-4.6,3.8-8.3,8.4-8.2s8.3,3.8,8.2,8.4c0,2.2-0.9,4.3-2.5,5.8
	C884.9,197.5,882.8,198.3,880.5,198.3z M884.5,194c2.2-2.2,2.3-5.8,0.1-8c-2.2-2.2-5.8-2.3-8-0.1c-2.2,2.2-2.3,5.8-0.1,8
	c1.1,1.1,2.5,1.7,4,1.7C882,195.6,883.5,195.1,884.5,194L884.5,194z"/>
<path fill="#FFFFFF" d="M905,182.1h2.8v15.8H905v-2.3c-1.1,1.8-3.1,2.8-5.1,2.7c-3.7,0-6.1-2.5-6.1-6.5v-9.7h2.8v9.6
	c0,2.6,1.5,4,3.9,4c2.8,0,4.6-1.7,4.6-5.2L905,182.1z"/>
<path fill="#FFFFFF" d="M916.6,184.7c0.8-2,2.8-3.2,5-3v2.9c-1.3-0.1-2.5,0.3-3.5,1.1c-1.1,1-1.6,2.4-1.5,3.8v8.4h-2.8v-15.8h2.8
	V184.7z"/>
<path fill="#FFFFFF" d="M940.2,175.7h2.9v22.2h-2.4l-11.4-16.6v16.6h-3v-22.2h2.4l11.4,16.5V175.7z"/>
<path fill="#FFFFFF" d="M951.5,191.2c0.5,2.8,2.7,4.5,5.7,4.5c1.8,0.1,3.6-0.8,4.6-2.3l2.3,1.3c-1.5,2.4-4.2,3.7-7,3.6
	c-2.3,0.1-4.5-0.7-6.1-2.3c-3.1-3.4-3.1-8.6,0-12c1.6-1.6,3.8-2.5,6-2.4c2.2-0.1,4.2,0.8,5.7,2.5c1.5,1.6,2.3,3.7,2.2,5.9
	c0,0.4,0,0.8-0.1,1.2L951.5,191.2z M951.5,188.8h10.6c-0.2-2.6-2.4-4.7-5.1-4.6C954.2,184.1,951.8,186.1,951.5,188.8z"/>
<path fill="#FFFFFF" d="M978.1,184.7h-4.2v8.6c0,2.4,1.4,2.3,4.2,2.1v2.5c-4.8,0.6-7-0.7-7-4.6v-8.6H968v-2.7h3.1v-3.6l2.8-0.8v4.4
	h4.2L978.1,184.7z"/>
</svg>
