<svg id="Group_677" data-name="Group 677" xmlns="http://www.w3.org/2000/svg" width="60.958" height="50.732" viewBox="0 0 60.958 50.732">
  <rect id="Rectangle_1277" data-name="Rectangle 1277" width="0.924" height="50.327" transform="translate(0 0.217)" fill="#fff"/>
  <g id="Group_676" data-name="Group 676" transform="translate(4.72)">
    <path id="Path_411" data-name="Path 411" d="M58.626,200.544a2.069,2.069,0,0,0-2.2-1.674c-1.871,0-2.662,1.541-2.662,3.182,0,1.794.792,3.292,2.673,3.292a2.223,2.223,0,0,0,2.266-2.268h1.045a3.2,3.2,0,0,1-3.4,3.149c-2.443,0-3.631-1.806-3.631-4.1s1.3-4.14,3.718-4.14a3.007,3.007,0,0,1,3.234,2.554Z" transform="translate(-52.285 -178.623)" fill="#fff"/>
    <path id="Path_412" data-name="Path 412" d="M133.27,220.842h.88v1.2h.022a2.068,2.068,0,0,1,2.09-1.332v.991c-1.507,0-2.057.859-2.057,2.3v2.532h-.935Z" transform="translate(-124.964 -199.12)" fill="#fff"/>
    <path id="Path_413" data-name="Path 413" d="M167.714,220.729a2.987,2.987,0,1,1-2.761,2.983,2.7,2.7,0,0,1,2.761-2.983m0,5.13c.979,0,1.771-.77,1.771-2.147s-.792-2.158-1.771-2.158-1.771.771-1.771,2.158.792,2.147,1.771,2.147" transform="translate(-153.55 -199.138)" fill="#fff"/>
    <path id="Path_414" data-name="Path 414" d="M228.852,227.769h-.99l-1.155-4.525h-.022l-1.144,4.525h-1.012l-1.826-5.692h1.034l1.287,4.657h.022l1.144-4.657h1.023l1.189,4.657h.021l1.276-4.657h.968Z" transform="translate(-205.654 -200.355)" fill="#fff"/>
    <path id="Path_415" data-name="Path 415" d="M310.55,220.858h.88v.9h.022a1.98,1.98,0,0,1,1.849-1.035c1.5,0,1.958.859,1.958,2.081v3.743h-.935V222.7a1.072,1.072,0,0,0-1.155-1.144,1.6,1.6,0,0,0-1.683,1.783v3.215h-.935Z" transform="translate(-284.915 -199.136)" fill="#fff"/>
    <path id="Path_416" data-name="Path 416" d="M58.626,318.783a2.069,2.069,0,0,0-2.2-1.673c-1.871,0-2.662,1.541-2.662,3.182,0,1.794.792,3.292,2.673,3.292a2.223,2.223,0,0,0,2.266-2.268h1.045a3.2,3.2,0,0,1-3.4,3.149c-2.443,0-3.631-1.806-3.631-4.1s1.3-4.14,3.718-4.14a3.007,3.007,0,0,1,3.234,2.554Z" transform="translate(-52.285 -285.297)" fill="#fff"/>
    <path id="Path_417" data-name="Path 417" d="M133.487,338.966a2.987,2.987,0,1,1-2.761,2.983,2.7,2.7,0,0,1,2.761-2.983m0,5.13c.979,0,1.771-.77,1.771-2.147s-.792-2.158-1.771-2.158-1.771.771-1.771,2.158.792,2.147,1.771,2.147" transform="translate(-122.668 -305.81)" fill="#fff"/>
    <path id="Path_418" data-name="Path 418" d="M195.837,339.1h.88v.837h.022a2.1,2.1,0,0,1,1.838-.969,1.509,1.509,0,0,1,1.562.969,2.1,2.1,0,0,1,1.782-.969c1.133,0,1.893.473,1.893,1.651v4.173h-.935v-3.732c0-.7-.187-1.266-1.1-1.266a1.378,1.378,0,0,0-1.485,1.453v3.545h-.935v-3.732c0-.738-.231-1.266-1.067-1.266a1.535,1.535,0,0,0-1.518,1.453v3.545h-.935Z" transform="translate(-181.415 -305.808)" fill="#fff"/>
    <path id="Path_419" data-name="Path 419" d="M289.154,339.1h.88v.837h.022a2.1,2.1,0,0,1,1.838-.969,1.509,1.509,0,0,1,1.562.969,2.1,2.1,0,0,1,1.782-.969c1.133,0,1.893.473,1.893,1.651v4.173H296.2v-3.732c0-.7-.187-1.266-1.1-1.266a1.378,1.378,0,0,0-1.485,1.453v3.545h-.935v-3.732c0-.738-.231-1.266-1.067-1.266a1.535,1.535,0,0,0-1.518,1.453v3.545h-.935Z" transform="translate(-265.61 -305.808)" fill="#fff"/>
    <path id="Path_420" data-name="Path 420" d="M384.442,342.982a2.293,2.293,0,0,1-2.431,1.938c-1.815,0-2.674-1.255-2.729-3a2.739,2.739,0,0,1,2.674-2.961c2.013,0,2.629,1.883,2.574,3.259h-4.257a1.675,1.675,0,0,0,1.771,1.871,1.371,1.371,0,0,0,1.475-1.112Zm-.9-1.585a1.637,1.637,0,0,0-1.639-1.607,1.62,1.62,0,0,0-1.628,1.607Z" transform="translate(-346.928 -305.808)" fill="#fff"/>
    <path id="Path_421" data-name="Path 421" d="M440.682,339.081h.88v1.2h.022a2.069,2.069,0,0,1,2.09-1.332v.991c-1.507,0-2.057.859-2.057,2.3v2.532h-.935Z" transform="translate(-402.327 -305.793)" fill="#fff"/>
    <path id="Path_422" data-name="Path 422" d="M476.591,340.924a1.325,1.325,0,0,0-1.408-1.134c-1.353,0-1.771,1.068-1.771,2.223,0,1.046.473,2.081,1.661,2.081a1.47,1.47,0,0,0,1.562-1.387h.957a2.364,2.364,0,0,1-2.508,2.213,2.589,2.589,0,0,1-2.663-2.907c0-1.706.88-3.05,2.684-3.05a2.181,2.181,0,0,1,2.453,1.96Z" transform="translate(-430.963 -305.808)" fill="#fff"/>
    <path id="Path_423" data-name="Path 423" d="M534.81,319.287h-.935v-1.145h.935Zm-.935,1.024h.935V326h-.935Z" transform="translate(-486.41 -287.023)" fill="#fff"/>
    <path id="Path_424" data-name="Path 424" d="M557.621,344.768a1.262,1.262,0,0,1-.671.155c-.484,0-.792-.264-.792-.881a2.524,2.524,0,0,1-2,.881c-1.034,0-1.881-.463-1.881-1.6,0-1.288.957-1.563,1.925-1.751,1.035-.2,1.915-.132,1.915-.837,0-.814-.671-.946-1.266-.946-.792,0-1.375.242-1.419,1.078h-.936c.055-1.409,1.145-1.9,2.41-1.9,1.023,0,2.134.231,2.134,1.563v2.928c0,.441,0,.639.3.639a.794.794,0,0,0,.286-.055ZM556.1,341.85a4.816,4.816,0,0,1-1.694.385c-.616.11-1.144.33-1.144,1.024,0,.616.528.837,1.1.837,1.232,0,1.738-.771,1.738-1.288Z" transform="translate(-503.011 -305.81)" fill="#fff"/>
    <rect id="Rectangle_1278" data-name="Rectangle 1278" width="0.935" height="7.861" transform="translate(55.302 31.119)" fill="#fff"/>
    <path id="Path_425" data-name="Path 425" d="M57.038,436.952a1.717,1.717,0,0,0-1.947-1.607c-.88,0-1.761.319-1.761,1.343,0,.969,1.254,1.112,2.52,1.4s2.508.727,2.508,2.267c0,1.674-1.639,2.346-3.069,2.346-1.76,0-3.245-.859-3.245-2.775h.99c0,1.321,1.1,1.894,2.288,1.894.946,0,1.991-.3,1.991-1.432,0-1.078-1.254-1.266-2.508-1.541s-2.52-.638-2.52-2.081c0-1.6,1.419-2.3,2.85-2.3,1.606,0,2.828.76,2.894,2.488Z" transform="translate(-51.676 -391.967)" fill="#fff"/>
    <path id="Path_426" data-name="Path 426" d="M127.613,461.219a2.293,2.293,0,0,1-2.431,1.938c-1.816,0-2.674-1.255-2.729-2.995a2.739,2.739,0,0,1,2.674-2.961c2.013,0,2.629,1.883,2.574,3.259h-4.258a1.676,1.676,0,0,0,1.771,1.871,1.371,1.371,0,0,0,1.475-1.112Zm-.9-1.585a1.634,1.634,0,0,0-3.268,0Z" transform="translate(-115.204 -412.48)" fill="#fff"/>
    <path id="Path_427" data-name="Path 427" d="M183.851,457.318h.88v1.2h.022a2.069,2.069,0,0,1,2.09-1.332v.991c-1.507,0-2.057.859-2.057,2.3v2.532h-.935Z" transform="translate(-170.6 -412.464)" fill="#fff"/>
    <path id="Path_428" data-name="Path 428" d="M220.224,464.245h-1l-2.112-5.692h1.045l1.595,4.745h.022l1.551-4.745h.979Z" transform="translate(-200.609 -413.699)" fill="#fff"/>
    <path id="Path_429" data-name="Path 429" d="M277.505,437.526h-.935v-1.145h.935Zm-.935,1.024h.935v5.692h-.935Z" transform="translate(-254.256 -393.696)" fill="#fff"/>
    <path id="Path_430" data-name="Path 430" d="M299.31,459.161a1.324,1.324,0,0,0-1.408-1.134c-1.353,0-1.771,1.068-1.771,2.223,0,1.046.473,2.081,1.661,2.081a1.47,1.47,0,0,0,1.562-1.387h.957a2.364,2.364,0,0,1-2.508,2.213,2.589,2.589,0,0,1-2.663-2.907c0-1.706.88-3.049,2.684-3.049a2.181,2.181,0,0,1,2.453,1.96Z" transform="translate(-271.011 -412.48)" fill="#fff"/>
    <path id="Path_431" data-name="Path 431" d="M358.464,461.219a2.293,2.293,0,0,1-2.432,1.938c-1.815,0-2.673-1.255-2.728-2.995a2.739,2.739,0,0,1,2.674-2.961c2.013,0,2.629,1.883,2.574,3.259h-4.258a1.676,1.676,0,0,0,1.771,1.871,1.371,1.371,0,0,0,1.475-1.112Zm-.9-1.585a1.634,1.634,0,0,0-3.268,0Z" transform="translate(-323.49 -412.48)" fill="#fff"/>
    <path id="Path_432" data-name="Path 432" d="M130.428,26.264c-.09.172-.167.272-.155.4s.151.228.217.361c.06-.155.16-.272.148-.394s-.18-.282-.21-.371" transform="translate(-122.258 -23.695)" fill="#fff"/>
    <path id="Path_433" data-name="Path 433" d="M153.512,26.264c.09.172.167.272.155.4s-.151.228-.217.361c-.06-.155-.159-.272-.148-.394s.179-.282.21-.371" transform="translate(-143.037 -23.695)" fill="#fff"/>
    <path id="Path_434" data-name="Path 434" d="M116.865,22.368a.156.156,0,1,0-.156-.156.155.155,0,0,0,.156.156" transform="translate(-110.021 -19.899)" fill="#fff"/>
    <path id="Path_435" data-name="Path 435" d="M116.491,26.081a.156.156,0,1,0-.156.156.157.157,0,0,0,.156-.156" transform="translate(-109.544 -23.389)" fill="#fff"/>
    <path id="Path_436" data-name="Path 436" d="M117.265,29.948a.156.156,0,1,0-.156.155.156.156,0,0,0,.156-.155" transform="translate(-110.241 -26.878)" fill="#fff"/>
    <path id="Path_437" data-name="Path 437" d="M125.686,14.778a.156.156,0,1,0-.156-.156.156.156,0,0,0,.156.156" transform="translate(-117.98 -13.051)" fill="#fff"/>
    <path id="Path_438" data-name="Path 438" d="M121.718,15.993a.156.156,0,1,0-.156-.156.156.156,0,0,0,.156.156" transform="translate(-114.4 -14.147)" fill="#fff"/>
    <path id="Path_439" data-name="Path 439" d="M118.609,18.728a.156.156,0,1,0-.156-.156.155.155,0,0,0,.156.156" transform="translate(-111.595 -16.615)" fill="#fff"/>
    <path id="Path_440" data-name="Path 440" d="M129.837,15.164a.155.155,0,1,0-.156-.156.156.156,0,0,0,.156.156" transform="translate(-121.725 -13.4)" fill="#fff"/>
    <path id="Path_441" data-name="Path 441" d="M133.789,16.3a.156.156,0,1,0-.156-.157.156.156,0,0,0,.156.157" transform="translate(-125.291 -14.421)" fill="#fff"/>
    <path id="Path_442" data-name="Path 442" d="M137.514,18.038a.156.156,0,1,0-.156-.156.156.156,0,0,0,.156.156" transform="translate(-128.652 -15.991)" fill="#fff"/>
    <path id="Path_443" data-name="Path 443" d="M167.379,22.21a.156.156,0,1,0,.156-.156.156.156,0,0,0-.156.156" transform="translate(-155.738 -19.897)" fill="#fff"/>
    <path id="Path_444" data-name="Path 444" d="M168.066,25.928a.156.156,0,1,0,.156.156.156.156,0,0,0-.156-.156" transform="translate(-156.218 -23.392)" fill="#fff"/>
    <path id="Path_445" data-name="Path 445" d="M167.288,29.79a.156.156,0,1,0,.157.156.156.156,0,0,0-.157-.156" transform="translate(-155.516 -26.876)" fill="#fff"/>
    <path id="Path_446" data-name="Path 446" d="M158.713,14.778a.156.156,0,1,0-.156-.156.156.156,0,0,0,.156.156" transform="translate(-147.779 -13.051)" fill="#fff"/>
    <path id="Path_447" data-name="Path 447" d="M162.68,15.993a.156.156,0,1,0-.156-.156.156.156,0,0,0,.156.156" transform="translate(-151.358 -14.147)" fill="#fff"/>
    <path id="Path_448" data-name="Path 448" d="M165.795,18.728a.156.156,0,1,0-.156-.156.156.156,0,0,0,.156.156" transform="translate(-154.169 -16.615)" fill="#fff"/>
    <path id="Path_449" data-name="Path 449" d="M154.551,15.164a.155.155,0,1,0-.156-.156.155.155,0,0,0,.156.156" transform="translate(-144.024 -13.4)" fill="#fff"/>
    <path id="Path_450" data-name="Path 450" d="M150.609,16.3a.156.156,0,1,0-.156-.157.156.156,0,0,0,.156.157" transform="translate(-140.467 -14.421)" fill="#fff"/>
    <path id="Path_451" data-name="Path 451" d="M146.736,17.883a.156.156,0,1,0,.156-.156.156.156,0,0,0-.156.156" transform="translate(-137.113 -15.993)" fill="#fff"/>
    <path id="Path_452" data-name="Path 452" d="M140.919,21.292h.174v-.667a.64.64,0,0,1-.174-.054Z" transform="translate(-131.865 -18.559)" fill="#fff"/>
    <path id="Path_453" data-name="Path 453" d="M144.749,20.57a.609.609,0,0,1-.175.054v.667h.175Z" transform="translate(-135.163 -18.558)" fill="#fff"/>
    <path id="Path_454" data-name="Path 454" d="M139.078,9.387v-.4a.491.491,0,0,0-.383.4Z" transform="translate(-129.858 -8.112)" fill="#fff"/>
    <path id="Path_455" data-name="Path 455" d="M144.686,9.387h.38a.49.49,0,0,0-.38-.4Z" transform="translate(-135.264 -8.112)" fill="#fff"/>
    <path id="Path_456" data-name="Path 456" d="M138.749,14.992a.49.49,0,0,0,.956,0Z" transform="translate(-129.907 -13.526)" fill="#fff"/>
    <path id="Path_457" data-name="Path 457" d="M140.132.817a.542.542,0,0,1-.212-.345.624.624,0,0,1,.353.225V.16a.621.621,0,0,1-.353.225.784.784,0,0,1,.2-.385H139.6a.789.789,0,0,1,.2.385.618.618,0,0,1-.353-.225V.7a.623.623,0,0,1,.353-.225.542.542,0,0,1-.213.345Z" transform="translate(-130.544)" fill="#fff"/>
    <path id="Path_458" data-name="Path 458" d="M114.278,93.717a.192.192,0,1,1,.192-.192.193.193,0,0,1-.192.192m-.919-.284a.21.21,0,1,1,.21-.21.21.21,0,0,1-.21.21m-.317-.934-.051-.039a.183.183,0,0,0-.261,0,1.04,1.04,0,0,0-.113.119l-.053.061.036.029c.1.081.116.169.087.22a.085.085,0,0,1-.052.04.273.273,0,0,1-.192-.048l-.038-.022-.023.038c-.006.01-.012.018-.019.028a.476.476,0,0,0-.026.041.382.382,0,0,0-.064.179.132.132,0,0,0,.005.037.174.174,0,0,0,.1.1l.024.015c.045.029.108.066.156.093a.273.273,0,0,1-.267.011.409.409,0,0,1-.22-.295.828.828,0,0,1,.148-.414l.014-.023-.014-.024a.987.987,0,0,1-.069-.135c.051.007.1.016.151.029l.025.006.017-.019a.781.781,0,0,1,.457-.273.326.326,0,0,1,.242.121.367.367,0,0,1,.089.187c-.027-.018-.058-.042-.088-.065m1.8.738a9.947,9.947,0,0,1-1.619-.581v-.006a.425.425,0,0,0-.111-.331.416.416,0,0,0-.309-.152.429.429,0,0,0-.149.029,2.433,2.433,0,0,1-.225-.232,2.69,2.69,0,0,1-.481-.836,2.967,2.967,0,0,1-.141-.555.5.5,0,0,1-.511.372c0-.033,0-.112-.027-.12a.384.384,0,0,1-.479.088,4.069,4.069,0,0,0,.18.637,3.761,3.761,0,0,0,.7,1.183,3.383,3.383,0,0,0,.314.314.406.406,0,0,0,.266.439.376.376,0,0,0,.4-.045,4.408,4.408,0,0,0,.869.337,3.911,3.911,0,0,0,1,.159,1.776,1.776,0,0,0,.867-.309,2.252,2.252,0,0,0,.328-.249l.034-.032a2.771,2.771,0,0,1-.908-.109" transform="translate(-104.675 -81.713)" fill="#fff"/>
    <path id="Path_459" data-name="Path 459" d="M136.42,126.688a.171.171,0,0,0-.131-.1c-.2,0-.122.529-.36.529a.144.144,0,0,1-.16-.142c0-.074.052-.1.052-.156s-.047-.081-.1-.081-.1.022-.1.081.052.082.052.156a.145.145,0,0,1-.16.142c-.238,0-.16-.529-.36-.529a.168.168,0,0,0-.131.1.477.477,0,0,1-.063-.207.231.231,0,0,1,.23-.231c.268,0,.206.364.333.364a.089.089,0,0,0,.1-.089c0-.1-.186-.2-.186-.352s.136-.273.285-.393c.149.12.285.245.285.393s-.186.247-.186.352a.089.089,0,0,0,.1.089c.128,0,.066-.364.333-.364a.231.231,0,0,1,.231.231.482.482,0,0,1-.062.207m-.7.74a.13.13,0,1,1,.13-.13.13.13,0,0,1-.13.13m.53-1.281a.344.344,0,0,0-.1.014v-.587a4.1,4.1,0,0,1-.858-.129v.718a.313.313,0,0,0-.1-.016.334.334,0,0,0-.333.334.609.609,0,0,0,.166.378c.039-.092.074-.165.125-.165.1,0,.056.508.355.523a.214.214,0,0,0-.015.082.233.233,0,1,0,.466,0,.216.216,0,0,0-.015-.082c.3-.013.249-.523.352-.523.051,0,.083.07.128.165a.609.609,0,0,0,.166-.378.334.334,0,0,0-.334-.334" transform="translate(-126.396 -113.175)" fill="#fff"/>
    <path id="Path_460" data-name="Path 460" d="M82.563,122.722a.062.062,0,0,0-.076-.038c-.687.2-1.539-.368-2.364-.919a4.122,4.122,0,0,0-1.91-.9,1.141,1.141,0,0,0-.551.13.985.985,0,0,0-.437.507,3.152,3.152,0,0,1-.274.513.753.753,0,0,0-.165.4.426.426,0,0,0,.143.306,1.486,1.486,0,0,0,.36.247c.035.019.07.035.105.052.136.067.221.112.237.188a4.54,4.54,0,0,1-1.022.289,9.074,9.074,0,0,1-2.932,0,4.5,4.5,0,0,1-1.024-.29c.011-.114.1-.16.244-.231.035-.017.07-.033.107-.052a1.927,1.927,0,0,0,.353-.221.372.372,0,0,0,.142-.288.759.759,0,0,0-.164-.4,3.116,3.116,0,0,1-.274-.513.983.983,0,0,0-.438-.506,1.133,1.133,0,0,0-.55-.131,4.111,4.111,0,0,0-1.911.9c-.824.549-1.677,1.119-2.364.918a.062.062,0,0,0-.076.039.063.063,0,0,0,.034.079,2.841,2.841,0,0,1,.572.375,1.325,1.325,0,0,0,.739.376,1.784,1.784,0,0,0,.825-.245,8.687,8.687,0,0,0,.841-.53,3.83,3.83,0,0,1,1.636-.8c-.056.057-.11.106-.161.151a.642.642,0,0,0-.293.509,1.155,1.155,0,0,0,.158.524c.027.055.058.119.089.19a1.959,1.959,0,0,1,.12.383c.016.063.033.133.055.216a.807.807,0,0,0,.487.561,7.9,7.9,0,0,0,4.636,0,.807.807,0,0,0,.487-.561c.022-.084.039-.153.054-.216a2,2,0,0,1,.12-.383c.043-.1.085-.175.122-.245a.9.9,0,0,0,.146-.449.675.675,0,0,0-.308-.524c-.053-.047-.108-.1-.166-.158a3.824,3.824,0,0,1,1.636.8,8.878,8.878,0,0,0,.841.529,1.784,1.784,0,0,0,.825.245,1.326,1.326,0,0,0,.739-.377,2.854,2.854,0,0,1,.57-.374.064.064,0,0,0,.034-.079" transform="translate(-65.82 -109.043)" fill="#fff"/>
    <path id="Path_461" data-name="Path 461" d="M115.751,34.8V32.222a1.945,1.945,0,0,1,.776.2,2.245,2.245,0,0,1,.711.562,2.707,2.707,0,0,1,.481.837,3.01,3.01,0,0,1,.175.981Zm-.09-3.655a2.729,2.729,0,0,0-1.527.411c-.17-.1-.243-.2-.243-.316,0-.416,1.174-.453,1.77-.453h0c.6,0,1.77.037,1.77.453,0,.116-.074.215-.244.316a2.727,2.727,0,0,0-1.527-.411m-.038,3.655h-2.194a3.012,3.012,0,0,1,.175-.981,2.7,2.7,0,0,1,.481-.837,2.255,2.255,0,0,1,.71-.562,1.95,1.95,0,0,1,.828-.2Zm3.33-.164a.912.912,0,0,1-.264-.308c-.082-.169-.422-.84-.475-.93a.4.4,0,0,1-.067-.2.3.3,0,0,1,.073-.178c.027-.034.1-.106.129-.15a.544.544,0,0,1,.061-.08,3.219,3.219,0,0,0-.415-.561,3.355,3.355,0,0,0-.665-.577.488.488,0,0,0,.263-.412.375.375,0,0,0-.137-.291,3.828,3.828,0,0,1,.593-1.2l-.441-.186a.694.694,0,0,1,.1.5.566.566,0,0,1-.246-.334,1.972,1.972,0,0,1-.162.48.405.405,0,0,1,.359-.034.523.523,0,0,1-.555.186c-.157-.038-.313-.121-.307-.243a.149.149,0,0,1,.156-.15c.1.009.1.156.071.222.126-.072.257-.442.06-.5-.155-.042-.3.17-.348.334-.03-.2-.111-.386-.268-.375-.2.013-.137.389-.066.484.012-.132.084-.2.144-.2s.126.042.113.161-.183.193-.379.193a.481.481,0,0,1-.545-.418.68.68,0,0,1,.392.234,2.343,2.343,0,0,1,0-.6.617.617,0,0,1-.387.235.725.725,0,0,1,.321-.414h-.8a.725.725,0,0,1,.321.413.609.609,0,0,1-.38-.233,2.421,2.421,0,0,1,0,.6.668.668,0,0,1,.385-.233.481.481,0,0,1-.544.417c-.2,0-.366-.074-.379-.193s.06-.158.114-.161.131.065.144.2c.07-.1.136-.471-.066-.484-.157-.011-.238.178-.267.375-.052-.164-.193-.376-.348-.334-.2.055-.066.425.06.5-.03-.066-.025-.212.071-.222a.148.148,0,0,1,.155.15c.007.122-.149.2-.306.243a.525.525,0,0,1-.553-.184.4.4,0,0,1,.364.032,1.951,1.951,0,0,1-.162-.48.569.569,0,0,1-.252.337.693.693,0,0,1,.1-.5l-.442.186a3.834,3.834,0,0,1,.6,1.208.369.369,0,0,0-.132.287.484.484,0,0,0,.262.412,3.358,3.358,0,0,0-.665.577,3.719,3.719,0,0,0-.7,1.175c.061.062.325.351.388.429a.719.719,0,0,1,.178.386.58.58,0,0,0,.155.413.747.747,0,0,1,.087.3h2.191v2.388a.33.33,0,0,0-.252.119c.253.1.494.193.737.269a.639.639,0,0,1,.133-.349s-.318-.032-.489-.041V34.93h2.142a3.024,3.024,0,0,1-.174.945,2.69,2.69,0,0,1-.481.836,2.232,2.232,0,0,1-.711.562c-.043.021-.042.051-.085.069a.608.608,0,0,0-.106.193.842.842,0,0,0-.049.218c.1.031.155.047.251.071.752.188.938.133.981.1h0a3.348,3.348,0,0,0,.473-.444,3.763,3.763,0,0,0,.7-1.183,4.117,4.117,0,0,0,.258-1.447c0-.091,0-.121,0-.212" transform="translate(-106.336 -26.46)" fill="#fff"/>
    <path id="Path_462" data-name="Path 462" d="M146.63,62.305a.062.062,0,0,0-.021.06.063.063,0,0,0,.064.042.141.141,0,0,0-.049.09.14.14,0,0,0,.1-.023.062.062,0,0,0,.023.073.057.057,0,0,0,.057,0,2.365,2.365,0,0,1,.322.871.139.139,0,0,0-.08-.023.138.138,0,0,0,.043.1h-.536a.065.065,0,0,0-.036-.071.061.061,0,0,0-.072.025.147.147,0,0,0-.042-.094.139.139,0,0,0-.042.094.062.062,0,0,0-.073-.025.067.067,0,0,0-.035.071H145.8a.144.144,0,0,0,.033-.091.142.142,0,0,0-.092.034V62.7a.065.065,0,0,0,.074-.035.063.063,0,0,0-.026-.072.056.056,0,1,0,0-.084.063.063,0,0,0,.026-.073.067.067,0,0,0-.074-.035V61.77a.15.15,0,0,0,.079.033.144.144,0,0,0-.022-.09,1.683,1.683,0,0,1,.413.2,1.964,1.964,0,0,1,.423.39m.606,1.11a.041.041,0,0,1-.023.078,2.432,2.432,0,0,0-.411-1.088l.006-.007a.137.137,0,0,0,.092-.112.14.14,0,0,0-.138.061l-.047-.061a2.056,2.056,0,0,0-.464-.435,1.716,1.716,0,0,0-.516-.236.042.042,0,0,1,.079-.012.075.075,0,0,0-.086-.089.06.06,0,0,0-.039.053.14.14,0,0,0-.1-.051.142.142,0,0,0,.031.1.062.062,0,0,0-.057.028.076.076,0,0,0,.074.1c-.033-.027-.019-.079.022-.076v.838a.14.14,0,0,0-.139.036.136.136,0,0,0,.139.036v.91a.041.041,0,0,1-.021-.078.076.076,0,0,0-.082.093.062.062,0,0,0,.069.033.145.145,0,0,0-.037.1.136.136,0,0,0,.1-.037.065.065,0,0,0,.034.07.076.076,0,0,0,.093-.082.042.042,0,0,1-.079-.018h.632a.074.074,0,1,0,.073,0h.7a.041.041,0,0,1-.076.023.075.075,0,0,0,.095.079.062.062,0,0,0,.032-.07.142.142,0,0,0,.1.034.141.141,0,0,0-.039-.095.064.064,0,0,0,.069-.035.076.076,0,0,0-.084-.092" transform="translate(-136.017 -55.495)" fill="#fff"/>
    <path id="Path_463" data-name="Path 463" d="M149.552,68.38a.116.116,0,0,0,.058-.055.067.067,0,0,1-.06-.007c.021-.012.047,0,.021-.038s-.042-.041-.067-.012a.155.155,0,0,1-.2-.135.121.121,0,0,0,.058.048l.021.01.022,0a.129.129,0,0,0,.049.007h.009v0a.076.076,0,0,0,.066-.067c.006-.07-.06-.1-.134-.164-.029-.024-.05-.045-.069-.063-.025-.05-.008-.1-.073-.188a.4.4,0,0,0-.021-.082.234.234,0,0,0,.04.27c.071.078.222.153.217.22a.043.043,0,0,1-.039.033l-.021,0-.014,0a.114.114,0,0,1-.032-.015.239.239,0,0,1-.053-.042,1.654,1.654,0,0,1-.157-.193.282.282,0,0,1-.028-.252c.049-.069-.03-.209-.078-.244a.129.129,0,0,0,0-.072.072.072,0,0,1-.043.005c-.013-.026-.019-.031-.035-.034s-.03-.022-.033-.034c-.017.016-.024.031-.042.033s-.035,0-.046.009a.063.063,0,0,1-.053.019c-.029,0-.028.016-.026.037s0,.034.021.041l.009,0,.023.027.015-.029c.012-.012.05-.014.057.012s.008.024-.015.026a.462.462,0,0,1-.062.005c-.016,0-.016.021-.015.035s.02.025.053.016.094-.015.094.015c0,.076-.087.073-.106.164a.169.169,0,0,1-.053-.049.325.325,0,0,0-.064-.079.369.369,0,0,0-.065-.054c-.03-.018-.031-.033-.031-.063s.012-.052.011-.077a.149.149,0,0,0-.007-.023.042.042,0,0,0-.041-.026.037.037,0,0,1,.016.027.08.08,0,0,0-.012.015.018.018,0,0,0,0,.026s0,0,0,.006a.065.065,0,0,1,0,.013s0,0,0,0c-.007-.019-.015-.047-.033-.048h-.012a.005.005,0,0,0,0,0c0-.02-.022-.036-.046-.012.005,0,.015,0,.018.007a.171.171,0,0,0-.005.02c0,.019.014.029.035.029,0,0,.006,0,.006,0a.06.06,0,0,1,0,.009s0,0,0,0c-.035-.016-.049,0-.051.016a.053.053,0,0,0,0,.015c-.013.008-.015.027.007.041,0-.007,0-.018.007-.022l0,0a.035.035,0,0,0,.01.009s.009,0,.02-.007a.006.006,0,0,1,.009,0l.011.007a0,0,0,0,1,0,0c-.022.022-.018.042.008.049a.029.029,0,0,1-.052-.022c-.029.048.02.082.061.065,0,.016,0,.051.007.051a.009.009,0,0,1,.01-.009s0,0,0,0a.027.027,0,0,0,.021.028.012.012,0,0,1,.005-.015c.006.011.015.024.02.034a.336.336,0,0,0,.151.165.409.409,0,0,0-.107.1c-.025.025-.062.051-.086.038s-.012-.016-.027-.026a.039.039,0,0,0-.029-.008.1.1,0,0,0-.015.006.045.045,0,0,0-.048.014.038.038,0,0,1,.033.006c0,.006,0,.015,0,.016s.008.024.055.02c0,0,.008,0,.006,0a.024.024,0,0,1-.025.007c-.021-.006-.031-.022-.047,0a.04.04,0,0,1-.01.012h0c-.018.006-.036.042-.015.057a.035.035,0,0,1,.014-.029l.009.011c.014.02.029.032.06-.016,0,0,0,0,0,0,0,.022-.022.053.006.057l.013,0v.006a.042.042,0,0,0,.053.025.05.05,0,0,1-.03-.031c.006,0,.013,0,.014,0,.017-.017,0-.039,0-.051s.005,0,.007,0,.02.031.045.018a.041.041,0,0,0,.019-.03.128.128,0,0,1,.083-.016c0-.017.015-.04.049-.048a.053.053,0,0,1,.059.011.158.158,0,0,1,.034-.058c0,.134.176.13.219.211a.3.3,0,0,0-.148-.029c-.044.008-.12.049-.131.1a.188.188,0,0,0,.078.143c-.052.009-.07-.006-.118.007l-.005,0c-.04,0-.047-.067-.1-.048a.041.041,0,0,0-.013.009h0c-.018,0-.045.024-.04.043a.055.055,0,0,1,.031-.018.1.1,0,0,0,0,.01c0,.008,0,.016.018.016s.013,0,.019,0a.005.005,0,0,1,.006.006c0,.019-.06-.011-.049.041a.122.122,0,0,0,.009.014c0,.016.011.031.038.022-.006,0-.016-.011-.013-.019h.011s.006,0,.007-.008,0,0,0,0,.006,0,.006,0,0,.006,0,.011a.09.09,0,0,0,0,.016c0,.019.024.038.051.019-.007,0-.025,0-.026-.014l.012-.006a.022.022,0,0,0,.006-.017c0-.005,0-.005.005-.005l.013,0a.007.007,0,0,1,.008,0,.031.031,0,0,0,.038.016c.011,0,.015-.009.016-.014l.022.014c-.006-.019.008-.035.05-.007l.03-.024s.04.017.055,0,.012-.023.012-.044c-.018-.04-.027-.036-.036-.075-.013-.067.079-.1.133-.093a.3.3,0,0,0,.169.187c.062.021.087-.047.107-.037,0,0,.008.008.011.018a.325.325,0,0,1-.007.073c-.007.015-.04,0-.062,0a.029.029,0,0,0-.024.01.047.047,0,0,0-.04.042.072.072,0,0,1,.035-.018s0,.007,0,.008a.028.028,0,0,0,.049.017s.01,0,.005,0-.043.037-.019.047l.013.006a.033.033,0,0,0,.024.035c0-.009-.006-.014,0-.032h.012c.017,0,.01-.033.028-.042,0,0,.005,0,0,0-.007.019-.01.042.007.047l.013,0a.032.032,0,0,0,.048.013c-.006,0-.018-.008-.022-.016a.109.109,0,0,0,.012-.016c.012-.04-.023-.041-.023-.057s.04-.007.04-.047a.031.031,0,0,0,0-.006c.02-.011.039-.022.04-.038a.109.109,0,0,1-.05-.009Z" transform="translate(-138.709 -60.692)" fill="#fff"/>
    <path id="Path_464" data-name="Path 464" d="M126.145,88.539l-.03,0a.071.071,0,0,0-.081.06.069.069,0,0,0,.072.075h.021c0,.01,0,.02,0,.03l-.047.3-.327-.469a1.6,1.6,0,0,1,.343-.127c.053,0,.064.025.053.132m-.125.814-.515-.74a1.29,1.29,0,0,0,.165-.049l.388.554c-.012.078-.025.157-.038.235m-.053.333-.731-1.051h.067a.744.744,0,0,0,.112-.007l.586.841c-.013.082-.025.156-.035.216m-.825-1.043.8,1.153a1.14,1.14,0,0,1-.8-1.153m1.193-.091-.037,0v-.035a.2.2,0,0,0-.21-.224,3.44,3.44,0,0,1-.695.16.919.919,0,0,1-.416-.131l-.042.1a.062.062,0,0,0,0-.01.083.083,0,1,0-.018.051l-.042.1.044.018a1.364,1.364,0,0,0,.984,1.345c.1-.026.2-.011.2.1a.082.082,0,0,1-.092.094c-.039,0-.064-.023-.064-.049,0-.044.077-.018.085-.048s-.016-.058-.061-.058a.11.11,0,0,0-.115.107.143.143,0,0,0,.15.144.192.192,0,0,0,.206-.222c.035,0,.075,0,.084-.038l.007-.1-.035-.005.027-1.157.026,0a.068.068,0,1,0,.014-.134" transform="translate(-117.297 -79.656)" fill="#fff"/>
    <path id="Path_465" data-name="Path 465" d="M129.938,62.224c0-.009.008-.016.012-.016a.013.013,0,0,0,.016-.011c0-.009-.006-.013-.013-.021.009,0,.013-.006.009-.011s-.015,0-.018,0,.006-.008.009-.011.008,0,.012,0l.042.02c.006,0,.009,0,.009.011s0,.011,0,.014,0-.012-.012-.014-.006.005,0,.015-.019-.008-.024,0a.017.017,0,0,0,0,.021s0,.012,0,.021a.022.022,0,0,1-.03.015.023.023,0,0,1-.008-.033m.048-.106c-.006.012-.022.021-.033.011s0-.014-.011-.035a.219.219,0,0,0,.044.025m.031.017a.211.211,0,0,0,.051.02c-.023.006-.017.015-.033.014s-.021-.02-.018-.034m-.113.028h0m.478.175c.156,0,.234-.051.234-.1,0-.173-.43-.066-.43-.172a.064.064,0,0,1,.031-.047h.006c.216-.02.219-.169.374-.2-.186-.027-.212.12-.292.127a.1.1,0,0,0,.054-.09c-.038.051-.121.055-.168.114a.037.037,0,0,0-.007.03.08.08,0,0,0-.046.063c0,.164.436.051.436.171,0,.042-.075.07-.2.07-.089,0-.154-.064-.321-.021,0-.027.056-.08.034-.106a.04.04,0,0,0,.028-.033.06.06,0,0,0-.033-.015c.006-.008,0-.017-.008-.023a.1.1,0,0,0-.009-.024.183.183,0,0,0-.039-.025.1.1,0,0,0-.039-.011.089.089,0,0,0-.024,0c-.011,0-.021,0-.022.01a.048.048,0,0,0-.03-.013.061.061,0,0,0,0,.046c-.015,0-.032.041-.047.037.006.011.011.016.015.017-.013.023-.019.051-.033.052a.087.087,0,0,0,.011.013.47.47,0,0,0-.022.1h0a.185.185,0,0,0-.035-.028c-.025-.015-.024-.027-.02-.051s.018-.042.02-.061a.2.2,0,0,0,0-.02.033.033,0,0,0-.034-.023.021.021,0,0,1,.011.023l-.012.011c-.006.007-.01.015,0,.022a0,0,0,0,1,0,0,.024.024,0,0,1,0,.01s0,0,0,0-.008-.038-.023-.039h-.012s0,0,0,0c0-.016-.015-.029-.039-.01.005,0,.013,0,.016.007a.05.05,0,0,0-.007.016c0,.016.009.022.028.024s.006,0,.006,0a.023.023,0,0,1,0,.007s0,0,0,0c-.03-.013-.045,0-.048.011s0,.009,0,.012-.017.021,0,.034c0-.006,0-.016.01-.019h0a.028.028,0,0,0,.007.007s.008,0,.02-.005a.005.005,0,0,1,.007,0l.008.006s0,0,0,0c-.024.018-.024.036,0,.042,0,0,0,0,0,0-.007.035-.058.027-.05-.007-.034.04.011.07.052.051,0,0,0,0,0,0s0,.012.011.013,0-.008.009-.008,0,0,0,0a.018.018,0,0,0,.015.023c0-.007,0-.015.007-.015s.017.03.04.055a.467.467,0,0,1-.1.029.225.225,0,0,0-.076,0c-.025.013-.085.036-.1.01-.006-.008,0-.017-.011-.03a.035.035,0,0,0-.02-.015h-.015a.034.034,0,0,0-.041,0,.031.031,0,0,1,.024.015.058.058,0,0,0-.007.013c-.005.007,0,.02.037.033,0,0,0,0,0,.006a.02.02,0,0,1-.021,0c-.015-.012-.017-.03-.035-.018l-.012.006h0c-.017,0-.044.019-.031.038a.034.034,0,0,1,.021-.017c0,.005,0,.011,0,.012,0,.02.012.035.052.008,0,0,0,0,0,0-.009.017-.036.034-.016.047a.036.036,0,0,1,.01.007.005.005,0,0,0,0,0,.034.034,0,0,0,.033.038.037.037,0,0,1-.012-.034l.011,0c.019-.007.01-.031.021-.038s0,0,.006,0,.006.032.029.03a.033.033,0,0,0,.03-.033s0,0,0,0a.023.023,0,0,1,.011.025.03.03,0,0,0,.016-.016.033.033,0,0,1-.009.04.059.059,0,0,0,.038-.039.044.044,0,0,1,.008.013s0,0,0,0a.079.079,0,0,0,.047,0s0,0,0,0a.026.026,0,0,0,0,.023s.007-.012.009-.012,0,.023.014.037c0-.058.036-.035.073-.059,0,0,.005,0,0,0a.04.04,0,0,1-.016.019c.013,0,.044-.014.044-.034,0,0,.011-.011.024-.02a.04.04,0,0,0,.042-.018c0,.006.008.023,0,.028.038,0,.078-.041.093-.045.082-.017-.051-.076.117-.066a.086.086,0,0,0,.049-.018c-.013.025-.013.076.012.08a.1.1,0,0,1,.043.019s0,0,0,0a.109.109,0,0,0-.036.01c-.04.026-.04-.059-.083-.043l-.011.008c-.016,0-.039.02-.035.038a.041.041,0,0,1,.027-.015s0,.008,0,.008,0,.013.016.013.01,0,.017,0,0,0,0,0-.051-.009-.042.034a.038.038,0,0,0,.008.013c0,.013.01.027.033.019,0,0-.013-.009-.011-.016h.011s0,0,.005-.007a0,0,0,0,1,0,0s.005,0,.005,0,0,0,0,.009a.045.045,0,0,0,0,.013c0,.016.021.032.044.016-.007,0-.021,0-.022-.011l.01,0a.018.018,0,0,0,.005-.015s0,0,0,0h.011a.01.01,0,0,1,.009,0,.024.024,0,0,0,.031.014c.028-.009,0-.033.027-.038a.022.022,0,0,1,.017,0c.022.005.055,0,.06-.006a.062.062,0,0,0-.02-.065c-.014-.007,0-.023-.013-.044a.193.193,0,0,0,.083.021c.06,0,0-.009.03-.025a.091.091,0,0,1,.072-.008c.008,0,.015,0,.012.014-.007.032,0,.035,0,.049s-.032,0-.049,0a.022.022,0,0,0-.019.008.038.038,0,0,0-.032.034.058.058,0,0,1,.027-.013s0,0,0,.006a.022.022,0,0,0,.039.014s.008,0,0,0-.034.03-.016.038l.01,0a.028.028,0,0,0,.02.029c0-.007-.005-.011,0-.026h.011c.013,0,.007-.026.022-.034s0,0,0,0-.008.034.006.038l.011,0a.024.024,0,0,0,.036.011s-.013-.007-.016-.012a.07.07,0,0,0,.01-.014c.009-.033-.018-.033-.018-.046s.031-.006.031-.038a.023.023,0,0,0-.013-.02s0,0,0,0h0c.008,0,.018,0,.022-.01-.022,0-.016-.019-.02-.031s0,0,0-.006a.031.031,0,0,0,.01-.034c-.008.011-.034.024-.036,0,0,0,0-.017-.026-.013-.039,0-.059-.017-.135-.024,0,0-.008,0,0,0" transform="translate(-121.485 -55.771)" fill="#fff"/>
    <path id="Path_466" data-name="Path 466" d="M126.663,71.145v0s0,0,0,0m-.126-.268c.006-.011.01-.019.016-.019s.016,0,.019-.011-.006-.018-.017-.025c.011,0,.017-.008.011-.014s-.018.005-.02,0,.006-.009.01-.012.008,0,.016,0l.048.023c.006,0,.01.006.01.012s0,.015,0,.017,0-.015-.012-.017-.008.007,0,.018c-.012,0-.022-.01-.028,0a.018.018,0,0,0,0,.024c0,.005,0,.013,0,.025s-.018.027-.034.017a.028.028,0,0,1-.011-.038m.057-.124c-.008.014-.024.025-.038.012s0-.017-.014-.042a.214.214,0,0,0,.052.03m.037.019a.231.231,0,0,0,.06.024c-.028.005-.021.017-.038.016s-.024-.024-.022-.04m-.243.219s0,0,0,0a0,0,0,0,0,0,0m1.2-.088c0-.047-.053-.078-.205-.078s-.5.057-.5-.029c0-.042.067-.039.148-.034a.058.058,0,0,0,.033.017c.2.058.43-.046.55-.012-.141-.107-.258,0-.409-.029.088,0,.118-.024.122-.049-.068.045-.2-.022-.278.027l-.013.01c-.11,0-.2,0-.2.069,0,.153.411.064.54.064s.156.013.156.038-.128.046-.2.046a3.267,3.267,0,0,0-.652-.018c.016-.033.053-.076.033-.1a.049.049,0,0,0,.032-.039.073.073,0,0,0-.037-.017c.006-.009,0-.019-.01-.027s-.006-.024-.01-.026a.172.172,0,0,0-.045-.03.161.161,0,0,0-.046-.013.163.163,0,0,0-.028,0c-.011,0-.024,0-.026.011a.062.062,0,0,0-.035-.015.072.072,0,0,0-.005.054c-.019,0-.038.049-.055.043.006.013.012.019.017.02-.015.028-.021.06-.039.061.011.015.019.021.026.022,0,.02,0,.042,0,.059l-.033-.012h-.009a.024.024,0,0,1-.013,0l.013,0-.019-.007a.541.541,0,0,0-.067-.057c-.03-.017-.03-.032-.028-.063s.015-.052.015-.076c0,0,0-.017-.006-.024a.039.039,0,0,0-.039-.027.032.032,0,0,1,.015.027.126.126,0,0,0-.013.015.02.02,0,0,0,0,.027.006.006,0,0,1,0,0,.039.039,0,0,1,0,.012c0,.005,0,0,0,0-.006-.019-.013-.047-.03-.048,0,0-.01,0-.013,0s0,0,0,0c0-.02-.02-.036-.044-.012a.025.025,0,0,1,.018.008.06.06,0,0,0-.006.02c0,.02.012.026.033.027a.007.007,0,0,1,.007,0l0,.009s0,0,0,0c-.034-.015-.049,0-.051.017a.055.055,0,0,0,0,.013c-.013.009-.017.027.005.042,0-.007,0-.019.008-.022l.006,0a.027.027,0,0,0,.008.009s.009,0,.02-.007.006,0,.008,0l.01.007s0,0,0,.007c-.025.022-.022.044.008.05a.006.006,0,0,1,.006.007.029.029,0,1,1-.057-.008c-.035.049.02.087.063.062,0,0,0,0,0,0a.019.019,0,0,0,.013.016.011.011,0,0,1,.01-.01s0,0,0,.005,0,.025.019.027c0-.008,0-.017.007-.017s.027.034.061.053.049.043.068.024c0,.03.024.064.017.064a.392.392,0,0,0-.107,0c-.029.016-.1.041-.12.012-.007-.01-.005-.02-.014-.035a.037.037,0,0,0-.024-.018h-.016a.042.042,0,0,0-.048-.006.031.031,0,0,1,.026.018.155.155,0,0,1-.007.014c-.006.009,0,.025.043.04,0,0,.006.005,0,.007a.024.024,0,0,1-.025,0c-.017-.014-.02-.034-.042-.021l-.013.007h0c-.02,0-.051.021-.037.045a.038.038,0,0,1,.025-.02c0,.006,0,.012,0,.015,0,.022.015.04.061.009.005,0,.005,0,0,0-.011.02-.042.039-.017.055l.01.008,0,0a.043.043,0,0,0,.039.045.048.048,0,0,1-.014-.039l.012,0c.023-.009.013-.037.025-.044s.007,0,.007,0,.007.037.034.034a.036.036,0,0,0,.035-.037s0,0,0,0a.025.025,0,0,1,.013.028.041.041,0,0,0,.02-.019.04.04,0,0,1-.011.047.068.068,0,0,0,.043-.046.06.06,0,0,1,.01.016l0,0a.1.1,0,0,0,.053,0s0,0,0,0a.027.027,0,0,0,0,.027s.007-.014.011-.014,0,.026.016.043c.005-.068.043-.042.084-.069.006,0,.006,0,0,0a.034.034,0,0,1-.017.022c.046.01.121-.061.132-.091a.246.246,0,0,1,.045,0c.134.012.04-.121.257-.083a.1.1,0,0,0,.052-.024c-.015.028-.016.087.013.092a.109.109,0,0,1,.051.022s0,0,0,.005a.143.143,0,0,0-.042.009c-.046.031-.047-.069-.1-.049l-.013.01c-.019,0-.046.022-.041.043a.051.051,0,0,1,.031-.017v.011c0,.007,0,.015.018.015s.011,0,.018,0,.007,0,.007.005-.061-.011-.05.041a.107.107,0,0,0,.009.015c0,.015.011.031.038.022,0,0-.015-.01-.013-.019h.012s.006,0,.007-.008,0,0,0,0,0,0,0,0,0,.006,0,.011a.041.041,0,0,0,0,.016c0,.019.024.039.051.02-.007,0-.024,0-.027-.013l.013-.006a.025.025,0,0,0,.006-.019s0,0,.005,0h.012c.006,0,.008,0,.009,0a.029.029,0,0,0,.038.016c.033-.011.006-.04.031-.046a.041.041,0,0,1,.018,0c.026.007.065.006.071-.006a.068.068,0,0,0-.025-.075c-.016-.008,0-.028-.014-.051a.249.249,0,0,0,.1.023.172.172,0,0,0,.12-.03.121.121,0,0,1,.084-.008c.01,0,.017.006.014.018-.008.037,0,.039,0,.057s-.037,0-.057,0a.023.023,0,0,0-.022.009.044.044,0,0,0-.037.04.068.068,0,0,1,.032-.017s0,.007,0,.008a.026.026,0,0,0,.045.017s.009,0,.005,0-.04.034-.019.042a.048.048,0,0,0,.013.007.032.032,0,0,0,.022.034c0-.009-.006-.013,0-.031h.012c.016,0,.009-.03.026-.04,0,0,0,0,0,0-.006.018-.009.04.006.045l.013,0a.028.028,0,0,0,.043.013s-.016-.007-.018-.015a.177.177,0,0,0,.011-.017c.011-.037-.021-.038-.021-.053s.036-.006.036-.043a.023.023,0,0,0-.016-.024s0,0,0,0h0c.011,0,.021,0,.027-.012-.028,0-.02-.022-.023-.037a0,0,0,0,1,0-.007c.009-.006.015-.018.012-.04-.01.013-.04.027-.044,0,0,0,0-.02-.029-.015a.975.975,0,0,1-.167-.012c.1,0,.249-.027.249-.083" transform="translate(-118.471 -63.751)" fill="#fff"/>
    <path id="Path_467" data-name="Path 467" d="M124.732,77.738c0-.01.008-.018.014-.018s.015,0,.019-.011-.007-.017-.017-.023c.011,0,.016-.008.011-.013s-.017,0-.02,0,.006-.008.009-.011.008,0,.015,0l.047.022c.005,0,.009.006.009.012s0,.014,0,.015,0-.014-.013-.015-.006.006,0,.016-.022-.008-.027,0a.017.017,0,0,0,0,.023s0,.012,0,.023-.017.025-.033.018a.026.026,0,0,1-.009-.037m.054-.117c-.008.012-.024.024-.036.011s0-.015-.013-.04a.2.2,0,0,0,.05.029m.035.018a.292.292,0,0,0,.057.023c-.026,0-.02.014-.037.014s-.022-.022-.02-.037m1.067.119c0-.045-.048-.074-.194-.074s-.6.055-.6-.027c0-.052.152-.03.263-.028a.051.051,0,0,0,.033.021c.188.053.384-.073.519-.027-.107-.1-.244.01-.386-.019.083,0,.17-.017.175-.039-.065.042-.248-.029-.324.019a.033.033,0,0,0-.012.011c-.139,0-.309-.019-.309.064,0,.146.511.06.634.06s.148.014.148.036-.122.042-.191.042a3.508,3.508,0,0,0-.781,0c.011-.033.056-.081.035-.107a.044.044,0,0,0,.031-.036.065.065,0,0,0-.035-.018c.006-.008,0-.018-.008-.025s-.007-.022-.01-.026a.229.229,0,0,0-.043-.029.235.235,0,0,0-.043-.012c-.006,0-.025.005-.027,0s-.022,0-.025.011a.06.06,0,0,0-.033-.015.063.063,0,0,0-.005.052c-.018,0-.036.045-.052.04.006.013.011.017.016.019-.014.026-.02.057-.037.058l.016.017a.324.324,0,0,0-.006.044l-.015-.006a.137.137,0,0,1-.022,0l-.025,0c-.023,0-.039-.039-.079-.062s-.03-.031-.03-.061.012-.048.01-.072c0,0,0-.016-.007-.022a.037.037,0,0,0-.038-.025.031.031,0,0,1,.015.025.06.06,0,0,0-.011.014.018.018,0,0,0,0,.025.007.007,0,0,1,0,.005.036.036,0,0,1,0,.011c0,.005,0,0,0,0-.007-.019-.015-.044-.031-.046h-.011a.008.008,0,0,0,0,0c0-.018-.021-.033-.043-.011,0,0,.013,0,.017.007a.184.184,0,0,0,0,.02c0,.019.013.026.033.026a.005.005,0,0,1,.006,0l0,.008s0,0,0,0c-.033-.015-.047,0-.047.015a.051.051,0,0,0,0,.013c-.012.009-.015.026.007.04,0-.006,0-.019.007-.021l0,0s.009.007.009.008.009,0,.019-.007a.009.009,0,0,1,.009,0l.01.006a0,0,0,0,1,0,.006c-.022.021-.019.043.011.048,0,0,0,0,0,.007,0,.04-.056.033-.054-.008-.029.047.024.083.063.059,0,0,0,0,0,0s.006.014.013.015a.009.009,0,0,1,.01-.009s0,0,0,0a.024.024,0,0,0,.02.026c0-.008,0-.016.005-.016a.443.443,0,0,0,.1.088c.011,0,.028,0,.034-.017,0,0,.006.009.013.015,0,.026.019.061.013.061a.5.5,0,0,0-.121.005c-.028.015-.094.04-.114.011-.007-.009,0-.018-.013-.033a.035.035,0,0,0-.021-.018h-.016a.039.039,0,0,0-.046,0,.033.033,0,0,1,.026.017.13.13,0,0,1-.008.012c0,.01,0,.024.04.039,0,0,.006,0,0,.006a.021.021,0,0,1-.024,0c-.016-.013-.019-.031-.038-.02l-.013.006-.005,0c-.019,0-.047.022-.034.044a.032.032,0,0,1,.024-.02.044.044,0,0,1,0,.013c0,.022.014.039.058.009,0,0,0,0,0,0-.011.019-.041.037-.018.052l.011.008a.008.008,0,0,0,0,0,.04.04,0,0,0,.037.043.046.046,0,0,1-.013-.039c.006,0,.011,0,.012,0,.021-.007.012-.034.024-.042s.006,0,.006,0,.006.034.032.032a.035.035,0,0,0,.034-.036s0,0,0,0a.025.025,0,0,1,.012.026.05.05,0,0,0,.018-.017.038.038,0,0,1-.01.044.063.063,0,0,0,.042-.043.059.059,0,0,1,.008.014l0,0a.087.087,0,0,0,.051,0s0,0,0,0a.042.042,0,0,0,0,.026s.007-.013.011-.013,0,.025.013.039c.006-.063.082-.032.123-.058,0,0,.006,0,0,0a.042.042,0,0,1-.018.021.1.1,0,0,0,.053-.021l-.005.006.065-.029a.02.02,0,0,1,.026-.025s0,0,0,0c.042,0,.038-.032.055-.029.238.032.1-.1.382-.075.014,0,.02-.006.031-.017-.015.027-.015.073.013.078a.115.115,0,0,1,.048.021s0,0,0,0a.135.135,0,0,0-.039.01c-.044.028-.045-.065-.091-.047l-.013.009c-.019,0-.044.022-.039.041a.045.045,0,0,1,.029-.017v.01c0,.008,0,.015.016.015s.012,0,.018,0a0,0,0,0,1,.005.005c0,.017-.057-.009-.047.039a.117.117,0,0,0,.008.015c0,.014.01.029.037.021-.005,0-.015-.01-.013-.017h.012s0,0,.005-.007,0,0,0,0,0,0,0,0,0,.005,0,.01a.056.056,0,0,0,0,.016c0,.017.024.036.049.018-.007,0-.024,0-.025-.012l.012-.005s.006-.01.006-.018a0,0,0,0,1,.005,0h.011c.006,0,.008,0,.009,0a.029.029,0,0,0,.036.015c.03-.011,0-.038.03-.044a.033.033,0,0,1,.018,0c.024.007.061.005.067-.006a.065.065,0,0,0-.023-.071c-.015-.008,0-.026-.013-.048a.234.234,0,0,0,.092.022.169.169,0,0,0,.113-.029.11.11,0,0,1,.081-.008c.008,0,.016,0,.013.017-.008.035,0,.038,0,.053s-.035,0-.054,0a.022.022,0,0,0-.021.011.04.04,0,0,0-.036.037.072.072,0,0,1,.03-.016.02.02,0,0,0,0,.007.025.025,0,0,0,.043.016s.008,0,0,0-.039.034-.017.042l.012.006a.03.03,0,0,0,.021.031c0-.007,0-.013,0-.028h.012c.015,0,.008-.03.024-.038s0,0,0,0c-.006.017-.009.038.006.043l.012,0a.027.027,0,0,0,.041.012.04.04,0,0,1-.019-.014.049.049,0,0,0,.011-.015c.011-.036-.02-.037-.02-.051s.035-.006.035-.043a.025.025,0,0,0-.016-.022s0,0,0,0h0c.01,0,.02,0,.025-.011-.027,0-.017-.021-.022-.036s0,0,0-.006a.039.039,0,0,0,.012-.039c-.008.013-.038.027-.04,0,0,0,0-.019-.029-.013a.95.95,0,0,1-.158-.013c.084-.006.236-.024.236-.079" transform="translate(-116.841 -69.934)" fill="#fff"/>
    <path id="Path_468" data-name="Path 468" d="M146.908,87.951h0m-.218-.341h0m-.011.051h0Zm.038.066c.006-.01.01-.019.015-.019s.016,0,.019-.011-.007-.016-.017-.023c.011,0,.017-.008.01-.013s-.017,0-.018,0,.005-.009.008-.013.008,0,.015,0l.046.022s.009.006.008.013,0,.013,0,.015-.005-.014-.013-.015-.007.006,0,.017c-.012,0-.021-.01-.028,0a.018.018,0,0,0,0,.023s0,.012,0,.024a.025.025,0,0,1-.033.016.027.027,0,0,1-.01-.037m.054-.118c-.007.015-.022.025-.036.012s0-.015-.013-.039a.245.245,0,0,0,.05.028m.035.018a.212.212,0,0,0,.057.023c-.026.006-.02.015-.036.015s-.024-.023-.021-.038m1.051.272a0,0,0,0,1,0-.006.039.039,0,0,0,.015-.039c-.01.013-.04.028-.041,0,0,0,0-.018-.027-.014a1.043,1.043,0,0,1-.17-.012s-.009,0,0-.006c.083-.007.237-.019.237-.073s-.05-.074-.2-.074-.594.053-.594-.029c0-.051.151-.03.263-.026a.057.057,0,0,0,.032.02c.188.053.4-.087.516-.054-.148-.052-.24.037-.383.008.083,0,.171-.017.175-.039-.065.042-.247-.029-.324.019l-.014.011c-.138,0-.306-.018-.306.063,0,.146.51.061.632.061s.149.012.149.035-.121.044-.191.044a3.447,3.447,0,0,0-.782,0c.01-.033.057-.082.036-.107a.046.046,0,0,0,.03-.037.063.063,0,0,0-.036-.017c.006-.009,0-.018-.008-.025s-.006-.022-.011-.025a.186.186,0,0,0-.043-.03.129.129,0,0,0-.043-.011.155.155,0,0,0-.026,0c-.01,0-.022,0-.024.011a.063.063,0,0,0-.034-.015.068.068,0,0,0,0,.052c-.018,0-.036.044-.052.039.006.013.011.018.016.019-.014.026-.02.057-.037.058.01.014.018.021.024.021a.421.421,0,0,0,0,.043l-.025-.008h-.023l-.024,0c-.023,0-.041-.039-.08-.062s-.029-.03-.029-.061.011-.048.01-.07a.15.15,0,0,0-.007-.023.039.039,0,0,0-.039-.025.033.033,0,0,1,.016.025l-.012.014a.021.021,0,0,0,0,.025.006.006,0,0,1,0,.005.036.036,0,0,1,0,.012c0,.006,0,0,0,0-.006-.017-.015-.044-.031-.045h-.012a.007.007,0,0,0,0,0c0-.018-.021-.033-.043-.011.006,0,.015,0,.018.008s0,.018-.005.019c0,.019.012.027.033.027,0,0,.006,0,.007,0s0,.006,0,.008,0,0,0,0c-.033-.015-.048,0-.048.016a.085.085,0,0,0,0,.012c-.011.009-.013.026.008.04,0-.006,0-.019.007-.021h0l.009.007s.008,0,.02-.007a.013.013,0,0,1,.008,0,.027.027,0,0,0,.01.006s0,0,0,.006c-.023.022-.019.044.011.049,0,0,0,0,0,.006,0,.041-.057.033-.055-.008-.03.048.023.083.063.06,0,0,0,0,.005,0s.006.015.013.015a.01.01,0,0,1,.01-.008s0,0,0,0,.005.025.02.027c0-.01,0-.016.005-.016s.034.06.094.093c0-.005.022-.015.035-.022a.037.037,0,0,0,.021.027l.01-.005c0,.028.029.057.023.057a.251.251,0,0,0-.084,0c-.026.016-.095.039-.114.012-.007-.011-.005-.019-.013-.034a.034.034,0,0,0-.022-.018h-.016a.04.04,0,0,0-.046-.005.033.033,0,0,1,.025.017.086.086,0,0,1-.006.013c-.006.01,0,.024.04.038,0,0,.006,0,0,.006a.019.019,0,0,1-.024,0c-.016-.012-.019-.032-.039-.02l-.013.006h0c-.019,0-.047.022-.035.045a.029.029,0,0,1,.024-.021l0,.013c0,.023.013.039.058.01.006,0,0,0,0,0-.01.019-.04.038-.017.052l.01.008s0,0,0,0a.04.04,0,0,0,.037.042.046.046,0,0,1-.015-.038.049.049,0,0,0,.013,0c.021-.009.011-.034.024-.043s.005,0,.006,0,.006.034.032.032a.032.032,0,0,0,.032-.036s0,0,0,0a.027.027,0,0,1,.012.028.052.052,0,0,0,.019-.018.039.039,0,0,1-.011.044.063.063,0,0,0,.042-.044.04.04,0,0,1,.009.014l0,0a.083.083,0,0,0,.051,0s0,0,0,0a.035.035,0,0,0,0,.026s.007-.013.011-.013,0,.025.015.041c.006-.065.041-.039.081-.065.005,0,.005,0,0,0a.042.042,0,0,1-.019.021c.015.012.074-.025.074-.049,0-.006.022-.008.042-.012.042,0,.036-.031.053-.029.239.033.1-.1.382-.075.014,0,.02-.016.031-.026-.015.026-.015.082.013.088a.106.106,0,0,1,.048.02s0,0,0,.005a.136.136,0,0,0-.04.01c-.042.029-.044-.065-.09-.048l-.013.011c-.019,0-.043.022-.039.041a.046.046,0,0,1,.029-.018v.01c0,.009,0,.015.017.015s.012,0,.017,0,.006,0,.006.005-.057-.009-.047.038a.092.092,0,0,0,.009.015c0,.014.01.029.035.021-.005,0-.015-.011-.012-.018h.011s.005,0,.007-.007,0,0,0,0,0,0,0,0,0,.006,0,.01a.045.045,0,0,0,0,.016c0,.018.023.037.049.018-.007,0-.023,0-.026-.012l.013-.006a.021.021,0,0,0,.005-.017s0,0,0,0h.013a.007.007,0,0,1,.008,0,.028.028,0,0,0,.035.014c.031-.011.005-.037.03-.043a.037.037,0,0,1,.019,0c.024.006.06.005.066-.007a.066.066,0,0,0-.023-.07c-.016-.007,0-.027-.013-.049a.221.221,0,0,0,.091.022.191.191,0,0,0,.12-.028.109.109,0,0,1,.082-.008c.007,0,.014.005.011.016-.01.035,0,.038-.008.054s-.035,0-.056,0a.026.026,0,0,0-.021.01.045.045,0,0,0-.038.037.068.068,0,0,1,.031-.015V88a.024.024,0,0,0,.042.016s.008,0,0,0-.042.033-.021.042l.011.006a.028.028,0,0,0,.019.032c0-.008,0-.013,0-.028h.012c.015,0,.01-.029.028-.038,0,0,0,0,0,0-.007.017-.012.038,0,.043l.012,0c0,.013.019.022.039.012,0,0-.015-.007-.016-.014a.1.1,0,0,0,.012-.016c.014-.036-.017-.037-.015-.051s.035-.006.038-.043a.019.019,0,0,0-.013-.021s0,0,0,0h0c.01,0,.02,0,.028-.011-.028,0-.017-.021-.02-.035" transform="translate(-136.736 -78.95)" fill="#fff"/>
    <path id="Path_469" data-name="Path 469" d="M146.488,94.533c-.016,0-.022-.022-.019-.037a.188.188,0,0,0,.054.023c-.025.005-.019.015-.035.015m-.024.031s0-.013-.012-.015-.006.006,0,.016-.02-.009-.025,0,0,.014,0,.022,0,.012,0,.022-.016.024-.031.015a.025.025,0,0,1-.009-.034c.005-.01.009-.016.014-.016a.016.016,0,0,0,.019-.011c0-.011-.006-.016-.016-.022.01,0,.016-.008.01-.012s-.016,0-.018,0,.005-.008.008-.012.008,0,.013,0l.045.021s.008.005.008.012,0,.013,0,.015m-.028-.084c-.008.012-.022.023-.035.011s0-.015-.012-.038a.228.228,0,0,0,.047.027m.452.009a.048.048,0,0,0,.033.024c.18.051.384-.083.492-.052-.141-.049-.229.035-.365.009.079,0,.163-.018.167-.039-.062.041-.235-.025-.309.02l-.011.009c-.1,0-.179,0-.179.062,0,.139.371.057.489.057s.1.012.1.035-.133.042-.2.042a2.96,2.96,0,0,0-.59-.016c.015-.03.048-.069.03-.09a.042.042,0,0,0,.029-.036.059.059,0,0,0-.034-.015c.006-.008,0-.018-.007-.025s-.006-.02-.01-.024a.149.149,0,0,0-.04-.027.1.1,0,0,0-.042-.012.158.158,0,0,0-.025,0c-.01,0-.021,0-.023.011a.05.05,0,0,0-.031-.013.067.067,0,0,0,0,.049c-.016,0-.033.043-.049.038.006.012.011.017.016.018-.014.025-.02.054-.035.056a.077.077,0,0,0,.014.015.258.258,0,0,0-.01.052l-.016-.006h-.007a.134.134,0,0,1-.072-.021c-.028-.016-.029-.03-.029-.058s.011-.046.01-.069a.111.111,0,0,0-.006-.022c-.006-.014-.026-.027-.038-.023a.032.032,0,0,1,.015.023l-.011.013a.017.017,0,0,0,0,.025.006.006,0,0,1,0,.006s0,.006,0,.011,0,0,0,0c-.006-.017-.014-.043-.03-.043H146.1v0c0-.019-.019-.033-.04-.011a.026.026,0,0,1,.017.008.1.1,0,0,0-.006.018c0,.019.013.025.033.025a.005.005,0,0,1,.006,0,.025.025,0,0,1,0,.007s0,0,0,0c-.031-.014-.044,0-.045.015a.03.03,0,0,0,0,.013c-.011.007-.015.025.006.037,0-.006,0-.017.006-.019l.006,0s.007.007.008.008.008,0,.018-.006,0,0,.007,0l.01.007s0,0,0,.005c-.021.021-.018.042.01.046,0,0,0,0,0,.007,0,.039-.054.031-.052-.008-.028.045.023.079.061.057,0,0,0,0,0,0s.006.014.013.015a.009.009,0,0,1,.009-.008s0,0,0,0a.024.024,0,0,0,.019.025c0-.008,0-.016.005-.016s.006-.018.053.009a.034.034,0,0,0,.017.018l.035-.006c0,.027,0,.068,0,.068a.223.223,0,0,0-.08,0c-.026.013-.09.037-.108.011-.007-.01-.005-.019-.013-.032a.032.032,0,0,0-.021-.016h-.016a.037.037,0,0,0-.044-.006.032.032,0,0,1,.025.016.084.084,0,0,0-.006.012c-.006.009,0,.023.038.037,0,0,.005,0,0,.006a.021.021,0,0,1-.022,0c-.016-.013-.017-.03-.037-.019l-.014.006-.005,0c-.017,0-.044.021-.031.042a.028.028,0,0,1,.021-.018.04.04,0,0,1,0,.012c0,.021.013.038.056.009,0,0,0,0,0,0-.011.018-.038.036-.016.05a.04.04,0,0,0,.01.007.01.01,0,0,0,0,0,.037.037,0,0,0,.036.039.043.043,0,0,1-.014-.036.045.045,0,0,0,.013,0c.02-.008.01-.032.022-.04s0,0,0,0,.007.033.031.031a.033.033,0,0,0,.031-.034s0,0,0,0a.025.025,0,0,1,.011.027.058.058,0,0,0,.017-.018.036.036,0,0,1-.01.043.059.059,0,0,0,.039-.042.043.043,0,0,1,.009.014l0,0a.084.084,0,0,0,.048,0s0,0,0,0a.026.026,0,0,0,0,.025s.006-.014.01-.014,0,.024.013.038c.006-.061.055-.045.094-.071,0,0,0,0,0,0a.038.038,0,0,1-.017.02c.041.026.085-.031.1-.062a.032.032,0,0,0,.011-.012c0,.006,0,.012-.007.018.04,0,.035-.029.051-.028.121.01.029-.1.224-.068a.078.078,0,0,0,.048-.021c-.014.025-.015.079.012.083a.122.122,0,0,1,.047.019s0,0,0,.005a.088.088,0,0,0-.038.01c-.041.026-.042-.062-.086-.045a.04.04,0,0,0-.012.008c-.017,0-.042.021-.037.039a.043.043,0,0,1,.028-.016.094.094,0,0,0,0,.01c0,.006,0,.015.016.015s.012,0,.018,0a0,0,0,0,1,.005.006c0,.016-.054-.01-.045.036,0,0,.005.011.009.013s.01.029.034.021c0,0-.013-.011-.012-.017h.011s0,0,.006-.007,0,0,0,0,.006,0,.006,0,0,.005,0,.009a.045.045,0,0,0,0,.015c0,.016.022.034.047.018-.007,0-.022,0-.024-.014l.011,0a.022.022,0,0,0,.005-.016s0,0,.005,0h.011c.006,0,.007,0,.009,0a.027.027,0,0,0,.034.015c.029-.011,0-.037.028-.041a.032.032,0,0,1,.018,0c.023.005.057,0,.064-.006a.062.062,0,0,0-.022-.069c-.014-.006,0-.025-.012-.047a.2.2,0,0,0,.087.022.225.225,0,0,0,.125-.026.106.106,0,0,1,.079-.008c.008,0,.013.006.008.016-.015.033-.006.037-.016.05s-.034,0-.053,0a.034.034,0,0,0-.021.008.057.057,0,0,0-.043.037.076.076,0,0,1,.033-.015l0,.007c0,.022.019.03.037.014,0,0,.008,0,0,0s-.044.031-.028.039l.012.006c-.006.014,0,.029.012.03s0-.012.009-.026h.011c.014,0,.015-.029.033-.037,0,0,0,0,0,0-.01.017-.018.037,0,.04l.01,0c0,.012.015.021.037.011,0,0-.015-.008-.015-.013l.015-.015c.019-.035-.011-.035-.007-.049s.034-.005.044-.04c0-.006,0-.017-.009-.021s0,0,0,0h0c.01,0,.019,0,.028-.012-.026,0-.012-.019-.012-.032a.007.007,0,0,1,0-.006.043.043,0,0,0,.02-.036c-.01.012-.042.025-.039,0,0,0,0-.017-.023-.013a1.232,1.232,0,0,1-.183-.012c-.005,0-.009,0,0-.006.079-.005.242-.017.242-.069s-.008-.07-.147-.07-.452.051-.452-.026c0-.038.06-.036.134-.031" transform="translate(-136.421 -85.174)" fill="#fff"/>
    <path id="Path_470" data-name="Path 470" d="M146.167,101.281c0-.009.008-.016.013-.016s.014,0,.017-.01-.006-.015-.015-.02c.01,0,.015-.008.01-.013s-.016,0-.018,0,.005-.008.008-.012.008,0,.013,0l.042.02s.008.005.008.011,0,.012,0,.014,0-.013-.011-.014-.007,0,0,.015-.019-.009-.024,0a.015.015,0,0,0,0,.021s0,.012,0,.021-.015.024-.03.015a.023.023,0,0,1-.008-.033m.05-.106c-.008.011-.022.021-.034.01s0-.015-.012-.035a.181.181,0,0,0,.046.025m.03.016a.177.177,0,0,0,.051.021c-.024.005-.018.014-.033.013s-.022-.02-.019-.034m.335-.015a.047.047,0,0,0,.033.024c.178.05.383-.083.492-.053-.142-.049-.231.037-.366.008.079,0,.164-.016.167-.037-.062.04-.235-.028-.309.017a.052.052,0,0,0-.013.014c-.055.012-.1.042-.1.082,0,.117.458.024.458.064s-.09.061-.21.061a1.249,1.249,0,0,0-.447-.011v0c.014-.033.056-.084.037-.106a.041.041,0,0,0,.028-.033.053.053,0,0,0-.031-.015c0-.01,0-.017-.009-.024s-.005-.019-.009-.022a.16.16,0,0,0-.038-.026.17.17,0,0,0-.04-.012s-.021,0-.023,0-.021,0-.022.009a.061.061,0,0,0-.029-.014.059.059,0,0,0,0,.048c-.016,0-.031.04-.046.036.005.011.01.016.015.017-.013.024-.019.052-.034.053a.074.074,0,0,0,.016.016.322.322,0,0,0-.008.112.83.83,0,0,0-.1-.112c-.026-.016-.027-.028-.027-.055s.011-.043.009-.065a.136.136,0,0,0-.006-.021.035.035,0,0,0-.035-.023.029.029,0,0,1,.015.023.046.046,0,0,0-.01.012.015.015,0,0,0,0,.022.005.005,0,0,1,0,0,.028.028,0,0,1,0,.01c0,.005,0,0,0,0s-.013-.04-.028-.041h-.011s0,0,0,0c0-.017-.019-.029-.039-.01,0,0,.013,0,.016.007a.077.077,0,0,0,0,.017c0,.016.011.024.03.024,0,0,.006,0,.006,0l0,.007s0,0,0,0c-.031-.012-.043,0-.044.014a.033.033,0,0,0,0,.012c-.011.007-.014.023.006.035,0-.006,0-.016.006-.019l0,0,.008.008s.007,0,.018-.007,0,0,.006,0l.009.006a0,0,0,0,1,0,0c-.02.019-.016.038.009.043a.005.005,0,0,1,.005.006c0,.037-.051.03-.049-.007-.027.043.021.076.057.054,0,0,0,0,0,0s0,.012.012.013a.008.008,0,0,1,.007-.008s0,0,0,0,0,.022.018.024c0-.008,0-.015,0-.015s0,.057.053.088a.059.059,0,0,0,.064.046c.009.023.022.043.018.043a.3.3,0,0,0-.088,0,.176.176,0,0,1-.058.02l0,0s0,0,0,0a.045.045,0,0,1-.044-.01c-.006-.009,0-.017-.012-.031a.034.034,0,0,0-.02-.015h-.015a.038.038,0,0,0-.041,0,.03.03,0,0,1,.023.016l-.006.012c-.006.008,0,.021.036.034,0,0,.006,0,0,.005a.019.019,0,0,1-.021,0c-.016-.012-.017-.029-.036-.019l-.011.006h0c-.016,0-.043.02-.03.04a.03.03,0,0,1,.021-.018.046.046,0,0,0,0,.012c0,.02.011.036.051.008.005,0,.005,0,0,0s-.037.033-.015.047l.009.006a.007.007,0,0,0,0,0,.036.036,0,0,0,.034.038.038.038,0,0,1-.012-.034l.012,0c.018-.007.01-.031.02-.038s0,0,0,0,.006.031.03.029a.031.031,0,0,0,.03-.033s0,0,0,0a.021.021,0,0,1,.011.024.049.049,0,0,0,.016-.016.03.03,0,0,1-.009.038.052.052,0,0,0,.037-.038.021.021,0,0,1,.008.013l0,0a.069.069,0,0,0,.046,0s0,0,0,0a.028.028,0,0,0,0,.024s.007-.012.01-.012,0,.022.013.036c.006-.057.037-.035.074-.059,0,0,0,0,0,0a.045.045,0,0,1-.017.019c.015,0,.055-.019.055-.039a.268.268,0,0,0,.034-.1h.015c.049,0,.071-.039.12-.042a.122.122,0,0,0-.015.07c0,.026.035.056.044.064s0,0,0,0a.106.106,0,0,0-.035.01c-.04.026-.04-.058-.082-.043a.077.077,0,0,0-.012.009c-.017,0-.039.019-.035.037a.044.044,0,0,1,.026-.016v.008c0,.007,0,.013.016.013s.01,0,.016,0a.005.005,0,0,1,.006,0c0,.017-.053-.008-.042.035,0,0,.005.01.007.013s.01.026.033.019c0,0-.013-.009-.011-.017l.011,0s0,0,.006-.007,0,0,0,0,0,0,0,0,0,.005,0,.01a.054.054,0,0,0,0,.013c0,.016.021.033.044.016-.006,0-.021,0-.023-.011l.011-.005s.005-.009.005-.015,0,0,0,0h.011s.006,0,.007,0a.026.026,0,0,0,.033.012c.028-.009,0-.033.027-.039a.053.053,0,0,1,.017,0c.022.006.039.01.046,0a.063.063,0,0,0-.021-.065c-.014-.007.02-.094-.047-.135.031.007.133.021.149,0a.182.182,0,0,1,.07.034c0,.007.006.013,0,.019-.027.016-.022.025-.037.03h0a.149.149,0,0,0-.027-.027.02.02,0,0,0-.021,0,.037.037,0,0,0-.043.017.055.055,0,0,1,.031,0,.023.023,0,0,0,0,.007s0,.01.006.014h0l0,0s0,0,0,0-.045,0-.038.013c0,0,0,.007,0,.011a.028.028,0,0,0-.007.034c0-.007,0-.011.019-.017a.11.11,0,0,1,.007.009c.008.009.024-.015.04-.009s0,0,0,0-.03.017-.024.03l0,.01a.026.026,0,0,0,.018.035s-.006-.015,0-.021l.016,0c.031-.016.011-.036.022-.045s.025.019.049,0a.021.021,0,0,0,.005-.023s0,0,0,0h0c.006.007.012.014.024.008-.018-.016,0-.023.009-.035s0,0,.005,0,.021,0,.033-.016c-.013,0-.048-.018-.027-.026s.036-.028.023-.044c-.024-.032-.074-.034-.075-.07h.045c.155,0,.253-.043.251-.092-.006-.1-.468.008-.468-.067,0-.023.029-.04.065-.052" transform="translate(-136.263 -91.215)" fill="#fff"/>
    <path id="Path_471" data-name="Path 471" d="M75.227,18.4a.112.112,0,1,0-.112.112.112.112,0,0,0,.112-.112" transform="translate(-72.392 -16.496)" fill="#fff"/>
    <path id="Path_472" data-name="Path 472" d="M74.828,15.343a.112.112,0,1,0-.112.112.112.112,0,0,0,.112-.112" transform="translate(-72.032 -13.741)" fill="#fff"/>
    <path id="Path_473" data-name="Path 473" d="M76.514,12.956a.112.112,0,1,0-.111-.112.112.112,0,0,0,.111.112" transform="translate(-73.655 -11.487)" fill="#fff"/>
    <path id="Path_474" data-name="Path 474" d="M79.565,12.754a.112.112,0,1,0-.111-.112.112.112,0,0,0,.111.112" transform="translate(-76.408 -11.304)" fill="#fff"/>
    <path id="Path_475" data-name="Path 475" d="M93.311,10.939a.112.112,0,1,0,0-.159.112.112,0,0,0,0,.159" transform="translate(-88.881 -9.696)" fill="#fff"/>
    <path id="Path_476" data-name="Path 476" d="M91.593,8.5a.112.112,0,1,0-.159,0,.112.112,0,0,0,.159,0" transform="translate(-87.188 -7.495)" fill="#fff"/>
    <path id="Path_477" data-name="Path 477" d="M88.553,8a.112.112,0,1,0-.158,0,.113.113,0,0,0,.158,0" transform="translate(-84.445 -7.046)" fill="#fff"/>
    <path id="Path_478" data-name="Path 478" d="M85.96,9.936a.112.112,0,0,0,0-.158.112.112,0,1,0,0,.158" transform="translate(-82.105 -8.792)" fill="#fff"/>
    <path id="Path_479" data-name="Path 479" d="M80.417,7.725l.09.2.113-.136.013,0a2.111,2.111,0,0,1,.014.244.143.143,0,1,0,.21-.126A1.143,1.143,0,0,1,80.7,7.76a.045.045,0,0,0,.007-.018l.191.017-.075-.2-.142.121-.008,0-.01-.208-.2.075.131.154a.059.059,0,0,0-.008.016Z" transform="translate(-77.277 -6.736)" fill="#fff"/>
    <path id="Path_480" data-name="Path 480" d="M78.2,12.8a.291.291,0,0,1,.062.155.324.324,0,0,1-.117-.106l.024.261a.226.226,0,0,1,.093-.094c-.009.169-.078.24-.135.251a.11.11,0,0,1-.134-.087c-.014-.075.052-.123.118-.055.012-.157-.114-.155-.169-.088a.229.229,0,0,0-.095-.332.244.244,0,0,0,.058.342c-.1-.053-.2.036-.1.151.02-.1.107-.078.127,0s-.048.157-.16.191c-.16.049-.212-.054-.252-.141a.226.226,0,0,1,.21.044l-.078-.255a.261.261,0,0,1-.153.155.815.815,0,0,1,.049-.224l-.308.125a.779.779,0,0,1,.191.126.26.26,0,0,1-.218,0l.123.237c.025-.106.078-.169.119-.178.033.09.067.2-.082.278a.189.189,0,0,1-.248-.025c-.042-.071.006-.149.089-.09-.014-.147-.143-.146-.18-.035,0-.152-.038-.243-.2-.286a.23.23,0,0,0,.165.305c-.086-.01-.178.076-.06.181,0-.1.079-.107.123-.043a.109.109,0,0,1-.036.155c-.049.032-.147.03-.273-.086a.228.228,0,0,1,.133,0l-.165-.2a.312.312,0,0,1-.01.157.289.289,0,0,1-.063-.154l-.126.112a1.451,1.451,0,0,1,.423.417,5.083,5.083,0,0,1,1.411-.575,1.467,1.467,0,0,1,.012-.594Z" transform="translate(-73.763 -11.462)" fill="#fff"/>
    <path id="Path_481" data-name="Path 481" d="M53.083,20.218c-.156.123-.364.01-.459-.15a4.711,4.711,0,0,0,.633-.293c-.156.239-.05.345-.174.443m-.035,1.629a.307.307,0,0,1-.4-.21c-.039-.122-.071-.222-.024-.268.087-.086.115-.153.062-.26-.06-.124-.192-.065-.333-.03.065-.119.071-.2-.019-.192-.107.012-.109.186-.168.165s-.026-.12-.026-.174c0-.073.048-.1.122-.133l.583-.222c.076-.027.128-.042.18.011.037.038.131.086.1.142s-.151-.067-.237,0-.009.111.121.15c-.126.074-.26.123-.217.255.037.113.1.142.225.143.066,0,.113.1.168.209a.29.29,0,0,1-.142.414m-1.111-1.178c-.157.014-.153-.136-.429-.2a4.689,4.689,0,0,0,.661-.221c.041.181-.033.406-.231.424m3.25,5.2c.044-.119-.176-.256-.2-.428a.855.855,0,0,0-.2-.566c-.193-.226-.864-.943-1.065-1.171a.321.321,0,0,1,.295.085c.072.067.215.2.349.336a3.628,3.628,0,0,1,.711-1.144c.04-.045.081-.089.123-.132a1.591,1.591,0,0,0-.4.132c-.008-.2.007-.357-.128-.482.052-.276.007-.609-.611-1.018.316.076.5.362.744.142-.217-.006-.222-.479-1-.872.3-.007.532.477.878.2-.327-.039-.434-.619-1.022-.8.2.023.414.123.589-.115-.2.048-.324-.14-.543-.157a.727.727,0,0,0-.025-.6.758.758,0,0,0-.424.15c-.017-.139-.164-.147-.293-.137.007.061.036.148-.03.16a5.58,5.58,0,0,0-.725.219,3.949,3.949,0,0,0-.667.358c-.055.038-.1-.051-.135-.092-.1.081-.188.186-.119.292a.838.838,0,0,0-.456.164.53.53,0,0,0,.36.439c-.363.36-.035.694-.354,1.009.449.017.371-.609.6-.7-.024.44-.269.518-.269.993,0,.254.151.529.016.7.376-.1.277-.935.511-1.185a.7.7,0,0,1-.031.423c-.131.387.015.918-.19,1.091.383-.037.429-.653.745-.879a19.18,19.18,0,0,1-.954,2.326c-.654.882-1.038,1.959-1.638,1.959a.443.443,0,0,1-.464-.5c0-1,1.72-1.693,1.72-2.763a.636.636,0,0,0-.63-.658.883.883,0,0,0-.527.218.575.575,0,0,0-.2-.045c-.608,0-.446,1.094-.976,1.083.21.118.573-.112.785-.418-.089.709-1.109.52-1.031,1.372.143-.667,1.768-.569,1.768-1.581A.388.388,0,0,0,49.925,23a.628.628,0,0,1,.343-.107.384.384,0,0,1,.372.432c0,.9-1.709,1.652-1.709,2.752a.775.775,0,0,0,.142.462.284.284,0,0,1-.347-.093c-.01.283.395.462.65.319a.665.665,0,0,0,.178.037.485.485,0,0,1-.475.264c.42.331,1.15-.1,1.11-.477a6.017,6.017,0,0,0,.785-1.03c-.015.07-.029.14-.038.209a3.594,3.594,0,0,0-.539,1.434c-.053.492-.3.935-.647.935-.076,0-.2-.1-.259-.049-.108.092-.006.189-.006.281,0,.14-.27.279-.27.711,0,.2.113.427.07.556a.786.786,0,0,0,.317-.48c.119.57-.243.546.017,1.052a.209.209,0,0,1,.3-.168c.1.071.055.119-.021.2s-.146.454.2.432c-.065-.043-.069-.143.1-.179.238-.048.307.061.561.061.156,0,.2-.2.324-.2s.124.1.08.167c.2-.054.237-.161.237-.275s-.092-.183-.021-.226.3.005.21.193a.223.223,0,0,0,.184-.254c0-.146-.167-.232-.323-.2-.027-.092-.162-.141-.287-.141-.28,0-.237.221-.429.221-.307,0-.606-.4-.606-1.075,0-.362.389-.453.664-.572a2.369,2.369,0,0,0,1.046-.9,2.143,2.143,0,0,0,.2-1.289.816.816,0,0,1,.433.776.474.474,0,0,1-.279.48c-.1.048-.139.028-.15.09a.133.133,0,0,0,.083.145c.14.072.111.206.15.351a1.113,1.113,0,0,0,.386.542,1.589,1.589,0,0,0,0-.421c.3.147.06.746.638.746a.146.146,0,0,1-.017-.24c.062-.023.139.039.252.194s.082.144.355.144.151-.094.3-.094.134.168.056.29a.314.314,0,0,0,.236-.45.234.234,0,0,1,.361.166.287.287,0,0,0-.167-.486.17.17,0,0,0-.157-.168,2.18,2.18,0,0,0-.273-.006c-.1.006-.156.151-.274.151-.362,0-1.08-.657-1.08-.942s.686-.458.686-.9c0-.577-.566-.773-1.044-1.144a.955.955,0,0,1,.947-.1c.032-.16.135-.121.173-.4.1.243,0,.453.1.557.08-.117.286-.1.273-.4.063.189-.079.478.063.6.025-.155.117-.184.177-.184s.109.042.109.134c0,.23-.284.123-.284.382,0,.11.138.147.138.218a.153.153,0,0,1-.251.088.3.3,0,0,0,.256.189.367.367,0,0,0,.313-.231c.065.166.015.349-.1.373.125.062.423,0,.389-.378.167.029.256.142.156.345.138-.034.264-.1.264-.249,0-.112-.122-.147-.068-.294" transform="translate(-48.291 -17.396)" fill="#fff"/>
    <path id="Path_482" data-name="Path 482" d="M231.071,110.407a.36.36,0,1,1,.361.36.361.361,0,0,1-.361-.36m-.124,0a.484.484,0,1,0,.484-.484.484.484,0,0,0-.484.484" transform="translate(-213.093 -99.171)" fill="#fff"/>
    <path id="Path_483" data-name="Path 483" d="M211.571,119.244c-.139-.025-.235-.128-.217-.229a.161.161,0,0,1,.069-.1.294.294,0,0,1,.215-.039.244.244,0,0,1,.219.205c0,.008,0,.016,0,.024a.23.23,0,0,1-.283.139m-.219-.431a.28.28,0,0,0-.12.179.285.285,0,0,0,.075.242.424.424,0,0,0,.242.131.433.433,0,0,0,.273-.038.285.285,0,0,0,.154-.2.35.35,0,0,0-.316-.373.413.413,0,0,0-.307.06" transform="translate(-195.301 -107.131)" fill="#fff"/>
    <path id="Path_484" data-name="Path 484" d="M183.853,49.554a.249.249,0,0,1,.1-.185.257.257,0,0,1,.183-.056.127.127,0,0,1,.09.048.133.133,0,0,1,.025.1.259.259,0,0,1-.1.164.2.2,0,0,1-.274.008.129.129,0,0,1-.025-.079m.026-.283a.322.322,0,0,0-.1.438h0a.32.32,0,0,0,.447.013.375.375,0,0,0,.147-.245.258.258,0,0,0-.049-.192.251.251,0,0,0-.172-.095.375.375,0,0,0-.275.081" transform="translate(-170.491 -44.376)" fill="#fff"/>
    <path id="Path_485" data-name="Path 485" d="M205.784,111.122h0Zm0-.125h0a.15.15,0,0,1-.108-.05.292.292,0,0,1-.073-.206.282.282,0,0,1,.08-.2.151.151,0,0,1,.111-.048c.1,0,.183.118.18.258a.287.287,0,0,1-.08.2.151.151,0,0,1-.11.046m-.188-.549a.417.417,0,0,0-.118.29v.01a.41.41,0,0,0,.108.285.277.277,0,0,0,.2.09.285.285,0,0,0,.2-.082.421.421,0,0,0,.119-.29.429.429,0,0,0-.081-.263.271.271,0,0,0-.421-.039" transform="translate(-190.116 -99.57)" fill="#fff"/>
    <path id="Path_486" data-name="Path 486" d="M180.852,71.547a.228.228,0,0,1-.147-.278.15.15,0,0,1,.092-.078.287.287,0,0,1,.217.02.292.292,0,0,1,.151.157.159.159,0,0,1,0,.121.161.161,0,0,1-.092.078.3.3,0,0,1-.218-.02m-.1-.473a.284.284,0,0,0-.162.141.35.35,0,0,0,.206.444.412.412,0,0,0,.313.025.277.277,0,0,0,.162-.141.28.28,0,0,0,.008-.215.416.416,0,0,0-.215-.228.411.411,0,0,0-.311-.025" transform="translate(-167.638 -64.104)" fill="#fff"/>
    <path id="Path_487" data-name="Path 487" d="M173.345,13.025a.2.2,0,1,1-.015-.315.225.225,0,0,1,.015.315m-.569.9a.2.2,0,1,1-.017-.315.227.227,0,0,1,.017.315M170.823,9c.067-.21.195-.626.195-.626l.219.085a.75.75,0,0,0-.21.15.225.225,0,0,0,.2-.015l-.088.22a.284.284,0,0,0-.144-.128.226.226,0,0,0,.147.285c.134.069.221.079.258.018.042-.076-.046-.183-.158-.135-.012-.115.053-.177.129-.177.061,0,.108.055.125.13a.358.358,0,0,1,.249-.387.373.373,0,0,1-.125.436.158.158,0,0,1,.187.025c.042.064.027.151-.075.206a.111.111,0,0,0-.2-.053c-.039.077.021.151.144.219a.227.227,0,0,0,.334-.092.258.258,0,0,0-.205.042l.146-.274a.281.281,0,0,0,.092.161.356.356,0,0,0,.009-.265l.315.182a.352.352,0,0,0-.225.141.289.289,0,0,0,.185,0l-.164.263a.261.261,0,0,0-.067-.2.228.228,0,0,0,.087.336c.122.072.215.088.261.015a.111.111,0,0,0-.146-.15c0-.115.063-.172.139-.168s.106.074.117.15a.371.371,0,0,1,.314-.327.358.358,0,0,1-.21.41.143.143,0,0,1,.175.043c.038.066.018.152-.089.2a.11.11,0,0,0-.2-.071c-.035.063.019.133.145.215a.227.227,0,0,0,.32-.015.289.289,0,0,0-.183-.061l.147-.186a.227.227,0,0,0,.087.179.733.733,0,0,0,.024-.256l.184.147s-.3.318-.444.481Zm2.366,2.688a.153.153,0,0,1,.046-.11.156.156,0,0,1,.113-.04.3.3,0,0,1,.2.1.3.3,0,0,1,.084.2.156.156,0,0,1-.047.109h0a.16.16,0,0,1-.113.039.311.311,0,0,1-.281-.3m.866,3.983a.3.3,0,0,1,.129-.177.293.293,0,0,1,.213-.049.164.164,0,0,1,.1.066h0a.152.152,0,0,1,.019.117.294.294,0,0,1-.129.178.229.229,0,0,1-.315-.017.159.159,0,0,1-.02-.118m-4.12-6a.25.25,0,0,1-.075.171.129.129,0,0,1-.092.036c-.08,0-.144-.1-.144-.207a.164.164,0,0,1,0-.017.243.243,0,0,1,.074-.17.122.122,0,0,1,.183.01.245.245,0,0,1,.055.177m1.274-2.619c.068-.129,0-.326.236-.326.116,0,.219.116.36.161a1.439,1.439,0,0,0-.6.165m3.712,3.279c.157.432.47.588.709.476-.534-.062-.1-.975-.788-.975a.538.538,0,0,0-.111.012.558.558,0,0,0-.446-.175.853.853,0,0,0-.791.86c0,1.248,1.448,1.359,1.448,2.461a.506.506,0,0,1-.515.523c-.244,0-.439-.274-.645-.7a5.391,5.391,0,0,0-.531-.774.386.386,0,0,0,.215.076.273.273,0,0,0,.2-.074.278.278,0,0,0,.085-.2v-.011a.433.433,0,0,0-.4-.416.271.271,0,0,0-.286.269v.011a.371.371,0,0,0,.023.128,2.637,2.637,0,0,1-.6-1.026.99.99,0,0,1,.3-.567l.056.032.044-.049c.058-.064.179-.2.43-.465l.015-.016h0l.06-.063-.155-.125a1.91,1.91,0,0,0,.1-.306c.048.2.151.328.293.287-.094-.207.1-.485-.029-.992.118.2.288.3.411.263-.321-.285.1-.682-.323-1.3a.245.245,0,0,0,.288-.048c-.381-.053-.207-.54-.876-.714.166-.029.264-.126.239-.214-.177.128-.332-.237-.912-.228a.845.845,0,0,0-.464-.556.755.755,0,0,1-.04.445l-1.889-1.856c-.055-.052-.086-.064-.1-.045s-.014.053.021.091l1.622,2.036c-.122.042-.242.093-.368.139a.22.22,0,0,0-.141.21,3.422,3.422,0,0,0-.7.454c-.1.092-.179.113-.092.318.034.078-.07.27.165.129.154-.092.5-.285.555-.164.027.063-.145.146-.264.191s-.247.137-.228.183.112,0,.119.045a.106.106,0,0,0,.092.1c.047,0,.108-.1.146-.066s-.019.255-.057.311a.368.368,0,0,0,.307-.334c0-.137.042-.17.07-.189s.062.146.024.246c.1-.021.2-.149.184-.385a.262.262,0,0,1,.136-.069c.062,0,.184.17.358.17a.536.536,0,0,0,.519-.382.359.359,0,0,0-.046-.268.443.443,0,0,1,.152.346c0,.455-.8.67-1.134.985-.013.011-.024.022-.036.034l-.378-.146-.025.083c0,.005-.005.02-.022.071-.039.13-.121.4-.172.555,0,0-.02.062-.02.062l.034.02a2.085,2.085,0,0,0-.445.975,3.3,3.3,0,0,0-.275-.251.452.452,0,0,0,.02-.1.372.372,0,0,0-.087-.267.244.244,0,0,0-.357-.02.244.244,0,0,0-.033.035l-.04-.031a3.092,3.092,0,0,1-.373-.312.191.191,0,0,0-.164-.068c-.032,0-.112,0-.168,0s-.088.043-.152.1c-.03.026-.117.094-.214.169.046.047.092.1.137.146l.071.085.066-.051a.2.2,0,0,1,.3.068c.034.052.339.453.593.732l-.08.03a1.343,1.343,0,0,1-.461.028c-.109-.009-.13-.036-.2.08a1.478,1.478,0,0,1-.1.14c-.036.045-.065.094.012.224.112.189.388.685.481.91a.524.524,0,0,0,.376.332,2.738,2.738,0,0,1,.512.284l.012-.171a1.045,1.045,0,0,0-.284-.138c-.064-.023-.08-.051,0-.051a1.909,1.909,0,0,1,.437.137,1.288,1.288,0,0,0-.3-.457.408.408,0,0,0-.308,0,.07.07,0,0,1-.072.08.067.067,0,0,1-.067-.088c.016-.051.092-.068.076-.164s-.136-.112-.212-.121c-.107-.156-.232-.384-.288-.476s-.022-.145.016-.176c.092-.076.284.04.668.064.133.008.3.017.475.025a1.059,1.059,0,0,0,.85,1.025,1.048,1.048,0,0,1,.723.589c-1.239-.021-1.434.462-1.434.918,0,.519.437.49.437.879,0,.338-1.042.479-1.357.526a.873.873,0,0,0-.547.227c-.128.128-.258.251-.491.484a.8.8,0,0,0,.2.017l.176-.228c.052-.076.088-.14.122-.134s.011.064-.03.145l-.145.245c.611.041.652-.186.652-.279s-.151-.157-.064-.215.162-.018.233.064.093.151.262.087c0,0,1.333-.553,1.5-.629.152-.069.108-.134.018-.21a.432.432,0,0,1-.116-.355c0-.4.243-.529.677-.52a1.614,1.614,0,0,0-.013.195c0,.63.952,1.246,1.21,1.246.115,0,.27-.085.279.294a3.725,3.725,0,0,1,.013.8.6.6,0,0,1-.336.508c-.194.136-.377.562-.459.653.085.056.179.064.25-.144a.629.629,0,0,1,.2-.336c-.075.19-.131.467-.166.551.243.042.637-.179.637-.351s-.136-.158-.136-.272a.132.132,0,0,1,.136-.107.2.2,0,0,1,.179.114c.107-.057.175-.165.172-.416,0-.1-.006-.2-.011-.3a.291.291,0,0,0,.021.04.283.283,0,0,0,.22.124.423.423,0,0,0,.266-.073.41.41,0,0,0,.182-.256.285.285,0,0,0,.007-.061.264.264,0,0,0-.044-.149.277.277,0,0,0-.179-.118.435.435,0,0,0-.483.3c-.02-.342-.045-.666-.035-.8.014-.193.021-.278-.044-.307s-.135.079-.228.079a.625.625,0,0,1-.373-.53c0-.273.294-.624.279-1-.005-.116.068-.177.115-.071a1.678,1.678,0,0,0,.266.44c-.078.469.437.926.862.587-.21.031-.354-.156-.447-.343a.671.671,0,0,0,.114.01l.064,0a.456.456,0,0,0,.743-.288.484.484,0,0,1-.376.153.757.757,0,0,0,.271-.608c0-1.189-1.441-1.328-1.441-2.41a.663.663,0,0,1,.594-.66.363.363,0,0,1,.224.072.541.541,0,0,0-.135.413c.038.855,1.433.813,1.451,1.223.157-.619-.883-.427-.921-1.262" transform="translate(-156.725 -3.852)" fill="#fff"/>
  </g>
</svg>
