<?xml version="1.0" encoding="utf-8"?>
<!-- Generator: Adobe Illustrator 22.1.0, SVG Export Plug-In . SVG Version: 6.00 Build 0)  -->
<svg version="1.1" id="Layer_1" xmlns="http://www.w3.org/2000/svg" xmlns:xlink="http://www.w3.org/1999/xlink" x="0px" y="0px"
	 viewBox="0 0 149.6 43.7" style="enable-background:new 0 0 149.6 43.7;" xml:space="preserve">
<g id="Logo" transform="translate(0)">
	<g id="Group_661">
		<path id="Rectangle_1274" d="M0.4,21.7L21.7,0.4c0.2-0.2,0.6-0.2,0.9,0l4.4,4.4c0.2,0.2,0.2,0.6,0,0.9L5.7,26.9
			c-0.2,0.2-0.6,0.2-0.9,0l-4.4-4.4C0.2,22.3,0.2,21.9,0.4,21.7z"/>
		<path id="Rectangle_1275" d="M16.7,38l4.9-4.9c0.2-0.2,0.6-0.2,0.9,0l4.4,4.4c0.2,0.2,0.2,0.6,0,0.9L22,43.2
			c-0.2,0.2-0.6,0.2-0.9,0l-4.4-4.4C16.5,38.6,16.5,38.2,16.7,38z"/>
		<path id="Rectangle_1276" d="M0.4,38l21.2-21.2c0.2-0.2,0.6-0.2,0.9,0l4.4,4.4c0.2,0.2,0.2,0.6,0,0.9L5.7,43.2
			c-0.2,0.2-0.6,0.2-0.9,0l-4.4-4.4C0.2,38.6,0.2,38.2,0.4,38z"/>
	</g>
	<g id="Group_673" transform="translate(43.764 11.263)">
		<g id="Group_671" transform="translate(0 0)">
			<g id="Group_667" transform="translate(11.038 1.848)">
				<g id="Group_662" transform="translate(0 3.697)">
					<path id="Path_403" d="M7.9,15.7c-4.3-0.1-7.7-3.6-7.7-7.9c0.1-4.3,3.6-7.7,7.9-7.7c4.3,0.1,7.7,3.6,7.7,7.9c0,2-0.9,4-2.3,5.4
						C12,15,10,15.8,7.9,15.7z M7.9,12c1.1,0,2.1-0.4,2.9-1.2c1.5-1.7,1.5-4.2,0-5.9C9.1,3.4,6.6,3.4,5,4.9c-1.5,1.7-1.5,4.2,0,5.9
						C5.7,11.6,6.8,12,7.9,12L7.9,12z"/>
				</g>
				<g id="Group_663" transform="translate(17.582 4.114)">
					<path id="Path_404" d="M10.1,0h3.8v14.9h-3.8v-1.7c-1,1.4-2.7,2.2-4.4,2.1c-1.5,0.1-3-0.5-4.1-1.6C0.5,12.4-0.1,10.8,0,9.2V0
						h3.8v8.7c-0.2,1.5,0.9,2.9,2.4,3.1c0.2,0,0.4,0,0.5,0c2,0,3.3-1.2,3.3-3.7V0z"/>
				</g>
				<g id="Group_664" transform="translate(33.964 3.816)">
					<path id="Path_405" d="M3.8,2.9C4.6,1,6.4-0.1,8.4,0v4.3C7.3,4.1,6.1,4.4,5.2,5c-1,0.7-1.5,1.9-1.4,3.1v7.1H0V0.3h3.8L3.8,2.9z
						"/>
				</g>
				<g id="Group_665" transform="translate(62.607 3.697)">
					<path id="Path_406" d="M4,9.4c0.5,1.9,1.9,2.8,4.2,2.8c1.3,0.1,2.5-0.5,3.3-1.5l3.1,1.8c-1.5,2.1-3.9,3.3-6.5,3.2
						C6,15.8,3.8,15,2.2,13.5c-3-3.2-3-8.1,0-11.2C3.7,0.7,5.7-0.1,7.9,0c2-0.1,4,0.8,5.4,2.3c1.4,1.5,2.2,3.5,2.1,5.6
						c0,0.5-0.1,1.1-0.1,1.6L4,9.4z M11.6,6.5c-0.3-1.8-1.9-3.1-3.7-3C6,3.3,4.3,4.6,4,6.5H11.6z"/>
				</g>
				<g id="Group_666" transform="translate(78.576)">
					<path id="Path_407" d="M6.4,4.1l0-4.1L2.6,1.1v3H0v3.7h2.6V19h3.8V7.8h3.4V4.1L6.4,4.1z"/>
				</g>
			</g>
			<g id="Group_668" transform="translate(0 0)">
				<path id="Path_408" d="M11.5,3.9V0H0v20.9h4.1v-7.3H9V9.7H4.1V3.9H11.5z"/>
			</g>
			<g id="Group_670" transform="translate(55.628)">
				<g id="Group_669">
					<path id="Path_409" d="M12.1,0h4.1v20.9h-3.1L4.1,8.1v12.8H0V0h3.1l8.9,12.7V0z"/>
				</g>
			</g>
		</g>
		<g id="Group_672" transform="translate(101.432 1.848)">
			<path id="Path_410" d="M2.2,0c1.2,0,2.2,0.9,2.2,2.1c0,0,0,0.1,0,0.1c0,1.2-0.9,2.2-2.2,2.3C1,4.5,0,3.5,0,2.3c0,0,0-0.1,0-0.1
				C0,1,0.9,0,2.1,0C2.1,0,2.2,0,2.2,0z M2.2,4.1c1,0,1.8-0.8,1.7-1.8c0,0,0,0,0,0c0-1-0.7-1.7-1.7-1.8c-1,0-1.7,0.7-1.8,1.7
				c0,0,0,0.1,0,0.1C0.4,3.2,1.2,4,2.2,4.1C2.2,4.1,2.2,4.1,2.2,4.1z M1.3,1.1h1c0.5,0,0.8,0.3,0.8,0.7c0,0.3-0.2,0.6-0.5,0.7
				l0.5,0.8H2.7L2.2,2.5H1.8v0.8H1.3V1.1z M1.8,1.5v0.6h0.5c0.2,0,0.3-0.1,0.3-0.3S2.5,1.5,2.3,1.5L1.8,1.5z"/>
		</g>
	</g>
</g>
</svg>
