<svg xmlns="http://www.w3.org/2000/svg" viewBox="0 0 104 104"><title>icon-anywhere</title><g id="Layer_2" data-name="Layer 2"><g id="Design"><path d="M52,65A13,13,0,1,0,39,52,13,13,0,0,0,52,65Z"/><polygon points="19.5 32.5 9.19 42.81 0 52 9.19 61.19 19.5 71.5 28.69 62.31 18.39 52 28.69 41.69 19.5 32.5"/><polygon points="94.81 42.81 84.5 32.5 75.31 41.69 85.61 52 75.31 62.31 84.5 71.5 94.81 61.19 104 52 94.81 42.81"/><polygon points="52 0 42.81 9.19 32.5 19.5 41.69 28.69 52 18.39 62.31 28.69 71.5 19.5 61.19 9.19 52 0"/><polygon points="52 85.61 41.69 75.31 32.5 84.5 42.81 94.81 52 104 61.19 94.81 71.5 84.5 62.31 75.31 52 85.61"/></g></g></svg>