<svg xmlns="http://www.w3.org/2000/svg" width="35.134" height="24.689" viewBox="0 0 35.134 24.689">
  <path id="Youtube" d="M17.567,24.689c-.11,0-11.019-.008-13.734-.734a4.463,4.463,0,0,1-3.1-3.067A46.292,46.292,0,0,1,0,12.376,46.379,46.379,0,0,1,.735,3.928,4.447,4.447,0,0,1,3.833.734C6.548.008,17.457,0,17.567,0S28.585.008,31.3.671a4.451,4.451,0,0,1,3.1,3.194,46.417,46.417,0,0,1,.734,8.511A46.419,46.419,0,0,1,34.4,20.76a4.455,4.455,0,0,1-3.1,3.2C28.585,24.681,17.677,24.689,17.567,24.689ZM13.974,7.155h0V17.6l9.183-5.222L13.974,7.155Z"/>
</svg>
