<svg xmlns="http://www.w3.org/2000/svg" viewBox="0 0 103.96 103.96"><g id="Layer_2" data-name="Layer 2"><g id="Design"><polygon points="90.96 81.76 65.3 56.11 65.3 47.85 90.96 22.19 90.96 36.79 103.96 36.79 103.96 13 103.96 0 90.96 0 67.17 0 67.17 13 81.76 13 55.76 39 55.83 39.06 48.13 39.06 48.19 39 22.19 13 36.79 13 36.79 0 13 0 0 0 0 13 0 36.79 13 36.79 13 22.19 38.46 47.65 38.46 56.31 13 81.76 13 67.17 0 67.17 0 90.95 0 103.95 13 103.95 36.79 103.95 36.79 90.95 22.19 90.95 48.19 64.95 47.95 64.71 56 64.71 55.76 64.95 81.76 90.95 67.17 90.95 67.17 103.95 90.96 103.95 103.96 103.95 103.96 90.95 103.96 67.17 90.96 67.17 90.96 81.76"/></g></g></svg>