<svg xmlns="http://www.w3.org/2000/svg" viewBox="0 0 104.11 103.99"><g id="Layer_2" data-name="Layer 2"><g id="Design"><polygon points="39.04 26.03 13.01 26.03 13.01 26.02 0 39.04 0 52.05 0 52.05 0 65.07 12.69 77.76 12.69 78.08 12.85 77.92 13.01 78.08 13.01 77.76 25.71 65.07 13.01 65.07 13.01 52.05 13.01 52.05 13.01 39.04 39.04 39.04 39.04 39.04 52.06 39.04 39.04 26.03 39.04 26.03"/><polygon points="91.04 78.08 91.04 65.07 78.02 65.07 91.04 78.08"/><polygon points="91.1 26.02 91.1 26.03 65.07 26.03 52.06 39.04 65.07 39.04 91.1 39.04 91.1 52.05 91.1 52.05 91.1 78.08 104.11 65.07 104.11 52.05 104.11 52.05 104.11 39.04 91.1 26.02"/><polygon points="39.04 0 26.03 13.01 26.03 26.03 39.04 26.03 39.04 0"/><polygon points="65.07 26.03 78.08 26.03 78.08 13.01 65.07 0 65.07 0.01 39.04 0.01 39.04 13.02 65.07 13.02 65.07 26.03"/><rect x="49.16" y="52.22" width="5.48" height="46.18"/><polygon points="78 94.12 62.21 94.12 62.21 52.22 67.69 52.22 67.69 88.64 78 88.64 78 94.12"/><polygon points="41.58 94.12 25.73 94.12 25.73 88.64 36.1 88.64 36.1 52.22 41.58 52.22 41.58 94.12"/><circle cx="78" cy="91.38" r="5.59"/><circle cx="25.73" cy="91.38" r="5.59"/><circle cx="51.9" cy="98.39" r="5.59"/></g></g></svg>