<svg xmlns="http://www.w3.org/2000/svg" viewBox="0 0 104 104"><g id="Layer_2" data-name="Layer 2"><g id="Design"><polygon points="55.51 86.1 64.22 94.81 73.41 104 82.6 94.81 104 73.41 94.81 64.22 73.41 85.61 64.7 76.91 55.51 86.1"/><polygon points="98.52 0 91 0 13 0 6.5 6.5 0 13 0 26 0 78 0 104 6.5 104 13 104 39 104 39 91 13 91 13 78 13 26 13 13 91 13 91 52 104 52 104 0 98.52 0"/><line x1="52" y1="32.5" x2="78" y2="32.5"/><rect x="52" y="26" width="26" height="13"/><line x1="26" y1="58.5" x2="78" y2="58.5"/><rect x="26" y="52" width="52" height="13"/><line x1="26" y1="32.5" x2="39" y2="32.5"/><rect x="26" y="26" width="13" height="13"/></g></g></svg>