<svg xmlns="http://www.w3.org/2000/svg" viewBox="0 0 103.99 103.99"><g id="Layer_2" data-name="Layer 2"><g id="Design"><path d="M104,58.5v-13H90.45a38.68,38.68,0,0,0-6.67-16.1l9.58-9.57-9.19-9.2-9.58,9.58A38.84,38.84,0,0,0,58.5,13.53V0h-13V13.53A38.94,38.94,0,0,0,29.4,20.2l-9.57-9.57-9.2,9.2,9.57,9.56A38.78,38.78,0,0,0,13.53,45.5H0v13H13.53A38.68,38.68,0,0,0,20.2,74.6l-9.57,9.57,9.2,9.19,9.57-9.57a38.94,38.94,0,0,0,16.1,6.67V104h13V90.45a38.69,38.69,0,0,0,16.09-6.67l9.58,9.58,9.19-9.19-9.58-9.58A39,39,0,0,0,90.45,58.5ZM52,78A26,26,0,1,1,78,52,26,26,0,0,1,52,78Z"/></g></g></svg>