<svg xmlns="http://www.w3.org/2000/svg" xmlns:xlink="http://www.w3.org/1999/xlink" width="30" height="29" viewBox="0 0 30 29">
  <defs>
    <clipPath id="clip-path">
      <rect id="Rectangle_1216" data-name="Rectangle 1216" width="30" height="29" transform="translate(-0.361 -0.263)" stroke="#707070" stroke-width="1"/>
    </clipPath>
  </defs>
  <g id="Twitter" transform="translate(0.361 0.263)" clip-path="url(#clip-path)">
    <path id="iconmonstr-twitter-1" d="M28.159,4.957a11.534,11.534,0,0,1-3.318.909,5.786,5.786,0,0,0,2.54-3.2,11.573,11.573,0,0,1-3.669,1.4A5.781,5.781,0,0,0,13.867,9.34,16.4,16.4,0,0,1,1.961,3.305a5.785,5.785,0,0,0,1.787,7.713A5.753,5.753,0,0,1,1.132,10.3a5.781,5.781,0,0,0,4.633,5.737,5.79,5.79,0,0,1-2.609.1,5.781,5.781,0,0,0,5.4,4.011A11.616,11.616,0,0,1,0,22.536a16.354,16.354,0,0,0,8.856,2.6A16.338,16.338,0,0,0,25.276,7.948a11.762,11.762,0,0,0,2.883-2.991Z" transform="translate(0.601 0.404)"/>
  </g>
</svg>
